<?xml version="1.0" standalone="no"?>
<!DOCTYPE svg PUBLIC "-//W3C//DTD SVG 20010904//EN"
 "http://www.w3.org/TR/2001/REC-SVG-20010904/DTD/svg10.dtd">
<svg version="1.0" xmlns="http://www.w3.org/2000/svg"
 width="500.000000pt" height="500.000000pt" viewBox="0 0 500.000000 500.000000"
 preserveAspectRatio="xMidYMid meet">

<g transform="translate(0.000000,500.000000) scale(0.100000,-0.100000)"
fill="#000000" stroke="none">
<path d="M0 3105 l0 -1896 61 66 c34 36 66 65 73 65 6 0 4 -5 -4 -10 -10 -7
-11 -10 -2 -10 7 0 16 8 19 18 7 18 16 28 47 52 18 13 19 13 11 0 -5 -8 13 1
40 21 28 20 49 41 48 47 -2 7 4 9 14 5 10 -4 14 -2 9 5 -7 11 154 152 175 152
6 0 27 14 46 30 30 26 37 29 51 18 13 -11 15 -10 9 5 -3 9 -2 17 3 17 6 0 10
-5 10 -11 0 -6 7 -4 15 4 8 9 20 18 27 20 10 4 9 8 -2 17 -12 9 -11 10 6 5 15
-4 24 0 28 10 3 9 10 14 14 11 5 -3 26 13 48 35 21 22 31 37 22 34 -10 -4 -18
-3 -18 3 0 5 11 13 25 16 14 4 23 11 20 16 -3 6 0 10 9 10 25 0 24 24 -3 65
-41 61 -65 122 -96 244 -22 85 -18 292 7 416 10 50 17 104 14 120 -2 17 3 59
11 95 9 36 15 74 15 84 -1 11 4 28 10 39 6 12 12 56 14 99 2 44 5 87 8 96 5
16 16 98 18 132 0 8 4 20 8 25 13 18 22 85 10 85 -5 0 -10 7 -10 15 0 8 -5 15
-11 15 -5 0 2 11 16 24 14 13 27 32 30 43 19 96 40 167 66 228 4 11 15 40 23
65 59 181 218 434 309 492 29 18 86 57 127 88 136 102 247 159 308 160 13 0
31 4 41 9 33 18 275 77 349 85 15 2 54 0 87 -4 35 -4 95 -2 145 6 94 13 222
18 470 19 l165 0 123 -43 c141 -49 168 -60 202 -82 14 -10 70 -40 125 -69 55
-29 110 -62 122 -73 13 -12 27 -17 35 -12 7 4 10 4 6 -1 -4 -4 21 -29 55 -55
112 -85 218 -216 273 -340 19 -41 39 -82 44 -90 34 -52 98 -231 115 -324 9
-50 20 -97 25 -105 7 -15 17 -67 25 -131 2 -14 9 -67 15 -119 9 -72 9 -138 0
-278 -6 -101 -8 -188 -4 -194 3 -6 7 -125 8 -264 0 -139 5 -257 9 -261 4 -5
17 -3 27 4 13 8 20 9 20 1 0 -5 4 -8 8 -5 9 5 43 -29 41 -42 -3 -19 2 -23 15
-12 12 9 15 8 14 -7 0 -10 2 -33 5 -50 4 -29 2 -33 -20 -33 -21 0 -22 3 -13
20 11 21 6 40 -10 40 -5 0 -7 -33 -4 -77 4 -43 7 -94 8 -113 1 -32 4 -35 51
-48 28 -8 60 -23 73 -35 18 -17 22 -18 22 -4 0 8 -13 25 -30 37 -16 12 -30 16
-30 10 0 -6 -5 -8 -10 -5 -13 8 13 35 32 35 22 0 102 -54 126 -85 12 -15 22
-38 22 -50 0 -12 7 -28 15 -35 8 -7 15 -9 15 -6 0 4 31 -18 70 -49 38 -31 74
-54 79 -51 5 4 13 1 17 -5 5 -8 3 -9 -7 -4 -8 5 -11 4 -6 -1 5 -5 12 -9 15 -9
4 0 13 -4 21 -9 11 -7 12 -6 6 5 -8 12 -6 12 9 0 9 -8 15 -20 12 -27 -3 -7 2
-18 10 -25 12 -10 13 -9 8 5 -3 9 -2 16 3 16 5 0 14 -15 21 -32 9 -24 15 -29
21 -20 7 11 9 11 14 -2 4 -9 2 -16 -4 -16 -6 0 -8 -4 -4 -10 12 -20 35 2 30
29 l-5 26 11 -28 c8 -20 8 -31 -1 -42 -13 -15 -2 -41 50 -120 24 -36 63 -161
84 -270 8 -44 24 -111 35 -150 l20 -70 0 2078 1 2078 -1087 -1 c-820 -1 -1091
-4 -1102 -13 -11 -9 -13 -9 -8 0 10 16 -1071 17 -1090 1 -9 -7 -13 -7 -13 1 0
6 -9 11 -20 11 -11 0 -20 -4 -20 -10 0 -5 -5 -10 -11 -10 -5 0 -7 5 -4 10 4 6
-5 10 -19 10 -14 0 -26 -4 -26 -10 0 -5 -5 -10 -11 -10 -5 0 -7 5 -4 10 9 15
-148 13 -164 -2 -11 -10 -13 -10 -7 0 5 8 -1 12 -18 12 -13 0 -27 -6 -29 -12
-4 -10 -6 -10 -6 0 -1 8 -18 12 -50 12 -30 0 -51 -5 -54 -12 -4 -10 -6 -10 -6
-1 -1 18 -1027 19 -1034 1 -4 -10 -6 -10 -6 0 -1 9 -29 12 -106 12 l-105 0 0
-1895z m2030 1865 c0 -5 -5 -10 -11 -10 -5 0 -7 5 -4 10 3 6 8 10 11 10 2 0 4
-4 4 -10z m60 0 c0 -5 -5 -10 -11 -10 -5 0 -7 5 -4 10 3 6 8 10 11 10 2 0 4
-4 4 -10z m340 -10 c0 -5 -5 -10 -11 -10 -5 0 -7 5 -4 10 3 6 8 10 11 10 2 0
4 -4 4 -10z m290 2 c0 -4 -10 -13 -22 -21 -23 -14 -23 -14 -4 8 20 22 26 25
26 13z m-1050 -6 c0 -3 -4 -8 -10 -11 -5 -3 -10 -1 -10 4 0 6 5 11 10 11 6 0
10 -2 10 -4z m1340 0 c0 -3 -4 -8 -10 -11 -5 -3 -10 -1 -10 4 0 6 5 11 10 11
6 0 10 -2 10 -4z m230 -6 c0 -5 -5 -10 -11 -10 -5 0 -7 5 -4 10 3 6 8 10 11
10 2 0 4 -4 4 -10z m150 -70 c0 -5 -5 -10 -11 -10 -5 0 -7 5 -4 10 3 6 8 10
11 10 2 0 4 -4 4 -10z m-890 -50 c0 -5 -5 -10 -11 -10 -5 0 -7 5 -4 10 3 6 8
10 11 10 2 0 4 -4 4 -10z m210 -114 c0 -3 -4 -8 -10 -11 -5 -3 -10 -1 -10 4 0
6 5 11 10 11 6 0 10 -2 10 -4z m2000 -1600 c0 -3 -4 -8 -10 -11 -5 -3 -10 -1
-10 4 0 6 5 11 10 11 6 0 10 -2 10 -4z m215 -55 c3 -5 1 -12 -5 -16 -5 -3 -10
1 -10 9 0 18 6 21 15 7z m-771 -503 c-9 -15 -22 -8 -27 14 -9 32 4 44 19 17 7
-13 10 -27 8 -31z m-3427 -769 c-9 -6 -15 -14 -12 -20 3 -5 -1 -6 -10 -3 -20
8 -1 34 24 34 14 -1 14 -2 -2 -11z m-101 -68 c-4 -5 0 -11 6 -14 7 -2 1 -4
-14 -3 -20 1 -24 4 -16 14 12 14 32 17 24 3z m3995 -88 c13 -16 12 -17 -3 -4
-17 13 -22 21 -14 21 2 0 10 -8 17 -17z m-4341 -188 c0 -2 -10 -10 -22 -16
-21 -11 -22 -11 -9 4 13 16 31 23 31 12z"/>
<path d="M2940 3470 l-35 -7 42 -2 c23 0 44 -5 48 -11 3 -5 12 -7 20 -3 8 3
15 0 15 -7 0 -6 8 -10 18 -8 29 7 122 -47 122 -71 0 -8 8 -10 22 -5 21 6 21 6
5 -10 -9 -10 -17 -23 -16 -29 0 -8 2 -8 6 1 2 6 9 10 14 6 5 -3 9 0 9 6 0 6 5
8 11 5 6 -4 8 -14 4 -23 -3 -9 -3 -13 1 -9 10 10 66 -82 58 -95 -5 -7 -1 -9 9
-5 9 3 19 1 23 -6 4 -7 4 -9 -1 -5 -4 4 -14 1 -22 -7 -8 -8 -20 -15 -26 -14
-8 0 -9 2 -1 5 13 5 -56 80 -70 76 -5 -2 -6 9 -4 23 4 21 3 23 -9 14 -7 -7
-16 -9 -20 -5 -3 3 -1 6 6 6 9 0 7 8 -4 28 -19 31 -117 84 -140 76 -8 -4 -15
-2 -15 2 0 11 -71 12 -87 1 -15 -10 -56 10 -48 24 4 5 13 9 21 9 22 0 11 24
-12 28 -16 3 -16 1 -4 -7 12 -8 8 -13 -20 -25 -26 -11 -37 -11 -43 -3 -6 8 -7
7 -4 -4 3 -9 -14 -41 -40 -75 -52 -69 -83 -126 -83 -152 0 -24 32 -62 53 -62
8 0 17 -9 20 -20 6 -23 11 -23 197 -21 89 1 135 6 159 17 24 12 36 13 44 5 18
-18 36 -13 65 16 32 32 59 39 64 16 3 -15 4 -15 20 0 20 21 28 21 28 2 0 -9 6
-12 15 -9 8 4 15 10 15 16 0 5 -5 6 -12 2 -7 -5 -8 -3 -3 5 4 8 -4 35 -18 64
-14 29 -33 69 -41 90 -8 20 -20 37 -27 37 -6 0 -20 12 -31 26 -24 30 -102 67
-184 89 -62 16 -61 16 -114 5z m-61 -72 c17 -10 17 -13 2 -30 -8 -10 -20 -18
-25 -18 -5 0 -15 -8 -22 -17 -13 -17 -13 -17 -14 0 0 9 -5 17 -12 17 -6 0 1
14 17 30 33 35 30 33 54 18z m-86 -70 c-4 -7 -8 -15 -8 -18 0 -3 -5 -18 -12
-35 -6 -16 -15 -39 -19 -50 -4 -11 -6 -23 -6 -27 3 -11 -26 -10 -32 1 -3 5 2
12 11 15 15 6 15 8 3 16 -12 8 -12 10 3 16 9 3 17 11 17 16 0 18 32 78 42 78
5 0 6 -6 1 -12z m170 -70 c15 -23 1 -48 -28 -48 -14 0 -25 2 -25 4 0 2 -3 11
-6 19 -6 16 23 50 39 44 6 -2 15 -10 20 -19z m-223 -104 c0 -8 -5 -12 -10 -9
-6 4 -8 11 -5 16 9 14 15 11 15 -7z"/>
<path d="M2854 3388 c5 -16 -4 -23 -26 -19 -5 0 -8 -4 -8 -10 0 -6 9 -8 23 -3
30 9 31 10 17 31 -10 16 -11 16 -6 1z"/>
<path d="M1484 3439 c-3 -5 -16 -9 -30 -9 -14 0 -22 -4 -19 -10 3 -5 0 -7 -9
-4 -9 3 -34 -13 -65 -43 -28 -27 -51 -47 -51 -43 0 3 5 11 12 18 7 7 8 12 2
12 -15 0 -39 -43 -25 -48 6 -2 11 -11 11 -20 0 -12 -5 -11 -21 7 l-21 23 -20
-29 c-43 -64 -49 -87 -40 -148 5 -32 7 -66 5 -75 -3 -10 0 -21 6 -24 6 -4 11
0 11 8 0 20 19 21 26 1 4 -10 14 -13 30 -9 14 4 24 2 24 -5 0 -7 33 -9 103 -5
56 3 114 5 129 5 17 -1 28 5 31 16 4 17 5 17 6 1 1 -14 10 -18 39 -17 30 0 33
2 17 9 -19 8 -19 9 3 9 17 1 22 7 22 26 0 14 5 25 11 25 6 0 9 -6 7 -12 -3 -7
6 -23 18 -36 l24 -23 0 28 c0 15 5 35 11 43 8 12 9 10 4 -7 -8 -29 15 -31 39
-4 17 18 16 21 -3 62 -12 24 -19 51 -15 61 3 12 0 18 -10 18 -8 0 -13 6 -11
13 3 7 -17 36 -45 66 -27 29 -50 58 -50 63 0 5 -4 7 -9 4 -5 -3 -11 4 -14 15
-3 12 -10 18 -16 14 -6 -3 -11 -2 -11 3 0 5 -11 12 -25 14 -13 3 -22 1 -19 -3
3 -5 0 -9 -5 -9 -6 0 -11 4 -11 9 0 12 -39 21 -46 10z m-186 -170 c7 -12 11
-23 8 -26 -7 -7 -36 23 -36 36 0 18 14 13 28 -10z m2 -45 c0 -2 -7 -4 -15 -4
-8 0 -15 4 -15 10 0 5 7 7 15 4 8 -4 15 -8 15 -10z m70 -29 c0 -8 -7 -15 -15
-15 -16 0 -20 12 -8 23 11 12 23 8 23 -8z"/>
<path d="M2835 3440 c-3 -5 -2 -10 4 -10 5 0 13 5 16 10 3 6 2 10 -4 10 -5 0
-13 -4 -16 -10z"/>
<path d="M2938 3443 c7 -3 16 -2 19 1 4 3 -2 6 -13 5 -11 0 -14 -3 -6 -6z"/>
<path d="M815 3390 c4 -6 11 -8 16 -5 14 9 11 15 -7 15 -8 0 -12 -5 -9 -10z"/>
<path d="M2726 3318 l-17 -33 20 24 c18 20 27 41 18 41 -1 0 -11 -15 -21 -32z"/>
<path d="M3230 3271 c0 -6 4 -13 10 -16 6 -3 7 1 4 9 -7 18 -14 21 -14 7z"/>
<path d="M2687 3251 c-4 -17 -3 -21 5 -13 5 5 8 16 6 23 -3 8 -7 3 -11 -10z"/>
<path d="M1621 2103 c-1 -17 16 -25 25 -12 4 7 3 9 -4 5 -5 -3 -13 0 -15 6 -4
9 -6 10 -6 1z"/>
<path d="M872 1806 c4 -17 1 -23 -9 -19 -7 3 -13 1 -13 -5 0 -6 -12 -25 -27
-44 -15 -18 -20 -27 -11 -20 14 12 21 11 42 -5 29 -21 32 -30 11 -30 -8 0 -15
4 -15 9 0 5 -7 2 -16 -7 -9 -8 -14 -22 -11 -29 5 -11 -3 -14 -32 -12 -34 3
-38 1 -33 -16 4 -15 7 -16 13 -7 6 11 9 10 14 -2 3 -8 19 -15 38 -16 l32 -2
-35 11 -35 11 38 10 c20 5 37 13 37 18 0 14 20 11 37 -7 10 -10 25 -13 39 -10
18 5 24 2 24 -10 0 -11 5 -14 16 -10 10 4 14 1 11 -6 -2 -8 -19 -13 -41 -12
-20 1 -36 -2 -36 -7 0 -5 -8 -5 -17 -2 -15 6 -16 5 -3 -9 11 -11 22 -13 42 -7
19 5 28 4 28 -4 0 -7 5 -4 11 6 5 9 18 17 27 17 10 0 23 5 30 12 9 9 12 9 12
0 0 -7 -4 -12 -9 -12 -5 0 -12 -7 -15 -16 -5 -13 -2 -15 14 -11 17 4 18 2 9
-15 -9 -17 -8 -19 9 -14 17 6 19 3 15 -21 -4 -22 -2 -25 6 -13 9 13 16 9 47
-22 41 -43 40 -45 -5 -22 -18 9 -35 13 -39 9 -4 -4 -1 -10 6 -12 6 -3 10 -8 7
-12 -2 -5 2 -16 9 -26 12 -17 15 -17 37 -2 30 21 45 22 28 1 -10 -13 -10 -17
1 -24 11 -7 11 -11 1 -24 -16 -19 -11 -20 24 -4 26 12 32 23 15 33 -13 8 -13
25 -1 25 5 0 13 -9 16 -21 4 -11 9 -18 12 -15 3 3 2 13 -3 23 -4 10 -8 27 -8
38 -1 27 49 79 69 71 31 -11 14 12 -17 25 -18 7 -36 17 -40 23 -4 6 -12 5 -22
-4 -22 -18 -31 -6 -11 14 13 12 13 16 3 16 -8 0 -24 9 -36 20 -13 12 -27 17
-38 13 -14 -5 -16 -3 -11 11 6 15 3 17 -12 13 -11 -3 -25 1 -32 9 -13 16 -33
19 -24 4 15 -24 -11 -7 -47 33 -22 23 -37 36 -34 30 4 -7 2 -13 -4 -13 -7 0
-9 7 -6 16 7 17 -18 60 -48 86 -29 24 -39 22 -34 -6z m30 -68 c17 17 39 15 32
-3 -4 -8 -10 -12 -15 -9 -5 3 -9 0 -9 -5 0 -6 -7 -11 -15 -11 -8 0 -15 5 -15
10 0 6 -8 10 -17 10 -15 0 -16 2 -3 10 9 6 17 5 22 -3 5 -9 10 -9 20 1z m253
-148 c4 -6 11 -8 16 -5 5 4 9 1 9 -4 0 -16 -19 -13 -36 4 -9 8 -11 15 -5 15 5
0 13 -5 16 -10z m-65 -4 c0 -3 -4 -8 -10 -11 -5 -3 -10 -1 -10 4 0 6 5 11 10
11 6 0 10 -2 10 -4z m75 -66 c17 -11 27 -20 24 -20 -9 0 -69 31 -69 36 0 9 16
3 45 -16z m-20 -28 c-3 -3 -11 0 -18 7 -9 10 -8 11 6 5 10 -3 15 -9 12 -12z
m35 -6 c0 -2 -8 -10 -17 -17 -16 -13 -17 -12 -4 4 13 16 21 21 21 13z m20 -36
c0 -5 -2 -10 -4 -10 -3 0 -8 5 -11 10 -3 6 -1 10 4 10 6 0 11 -4 11 -10z"/>
<path d="M4392 1760 c13 -20 28 -27 28 -12 0 10 -22 32 -32 32 -5 0 -3 -9 4
-20z"/>
<path d="M690 1731 c0 -5 5 -13 10 -16 6 -3 10 -2 10 4 0 5 -4 13 -10 16 -5 3
-10 2 -10 -4z"/>
<path d="M744 1607 c9 -29 -4 -40 -25 -21 -10 9 -19 14 -19 10 0 -11 27 -36
39 -36 6 0 11 -4 11 -10 0 -5 13 -7 30 -3 20 3 30 1 30 -6 0 -7 5 -9 10 -6 8
5 7 12 -2 23 -11 13 -11 15 2 7 38 -21 43 -29 23 -36 -14 -6 -13 -8 10 -8 27
-1 36 12 16 25 -8 4 -7 9 2 16 11 8 10 9 -3 4 -10 -3 -25 2 -33 11 -9 9 -30
16 -46 17 -17 1 -35 8 -40 16 -9 12 -10 12 -5 -3z m34 -36 c11 -7 11 -9 -1
-14 -16 -6 -27 0 -27 15 0 10 11 10 28 -1z"/>
<path d="M877 1609 c7 -7 15 -10 18 -7 3 3 -2 9 -12 12 -14 6 -15 5 -6 -5z"/>
<path d="M3470 1570 c0 -5 5 -10 11 -10 5 0 7 5 4 10 -3 6 -8 10 -11 10 -2 0
-4 -4 -4 -10z"/>
<path d="M680 1556 c0 -8 -9 -18 -21 -21 -11 -4 -18 -12 -16 -18 6 -20 25 -18
51 6 19 18 23 26 14 35 -16 16 -28 15 -28 -2z"/>
<path d="M1315 1550 c-3 -5 -1 -10 4 -10 6 0 11 5 11 10 0 6 -2 10 -4 10 -3 0
-8 -4 -11 -10z"/>
<path d="M3419 1550 c0 -3 -2 -13 -4 -22 -2 -10 1 -18 5 -18 15 0 19 15 9 30
-5 8 -9 13 -10 10z"/>
<path d="M770 1513 c-14 -7 -19 -13 -12 -13 8 0 10 -5 6 -12 -4 -7 3 -3 16 10
27 28 24 33 -10 15z"/>
<path d="M1010 1516 c0 -17 -38 -28 -43 -12 -2 6 -8 8 -13 3 -17 -16 75 -65
97 -51 14 8 0 24 -20 24 -14 0 -17 6 -13 25 2 14 2 25 -2 25 -3 0 -6 -6 -6
-14z"/>
<path d="M3377 1509 c7 -7 15 -10 18 -7 3 3 -2 9 -12 12 -14 6 -15 5 -6 -5z"/>
<path d="M870 1490 c6 -11 7 -20 2 -20 -5 0 -14 -11 -22 -24 -7 -14 -23 -27
-36 -30 -13 -4 -24 -11 -24 -16 0 -13 6 -13 42 6 16 9 27 11 23 4 -4 -6 -1
-18 6 -26 10 -12 8 -17 -7 -29 -17 -14 -17 -14 9 -4 15 7 27 17 27 23 0 15 64
39 68 26 2 -5 8 -10 13 -10 6 0 7 6 3 13 -5 8 -2 7 9 -2 10 -8 15 -16 13 -18
-6 -6 32 -43 44 -43 6 0 10 -3 10 -8 0 -4 10 -13 23 -21 20 -13 21 -13 8 2 -7
10 -10 17 -5 17 15 0 32 -15 36 -30 3 -15 23 -40 32 -40 3 0 3 8 0 18 -5 13
-4 14 4 3 12 -16 35 -5 26 12 -5 9 -4 9 6 0 10 -9 10 -15 -2 -27 -9 -8 -18
-13 -21 -10 -2 3 -7 -4 -10 -16 -6 -24 6 -26 28 -4 23 24 28 11 5 -13 l-19
-22 33 2 c19 1 34 4 34 7 -2 28 4 39 18 33 13 -5 15 -2 9 15 -4 14 -2 22 6 22
7 0 3 8 -7 18 -11 9 -18 25 -16 36 6 28 -12 40 -36 25 -16 -10 -18 -16 -10
-26 16 -20 2 -28 -26 -15 -23 10 -43 52 -25 52 5 0 9 5 9 11 0 6 -8 9 -17 7
-10 -2 -17 -11 -15 -19 2 -8 -5 -5 -17 8 -12 12 -21 26 -21 31 0 22 -86 48
-105 32 -8 -7 -15 -9 -15 -4 0 5 -4 3 -9 -5 -7 -11 -14 -10 -38 9 l-28 23 30
-7 30 -7 -33 30 c-38 36 -58 41 -42 11z m50 -80 c0 -3 -11 -10 -25 -17 -14 -6
-25 -7 -25 -2 0 5 5 9 10 9 6 0 10 7 10 15 0 8 -4 15 -10 15 -5 0 -10 5 -10
10 0 10 49 -20 50 -30z m118 17 c8 3 10 -1 6 -11 -7 -18 -24 -22 -24 -6 0 6
-7 10 -15 10 -8 0 -15 5 -15 10 0 7 6 7 18 2 9 -5 23 -7 30 -5z m31 -70 c0
-21 -1 -21 -9 -2 -12 28 -12 37 0 30 6 -3 10 -16 9 -28z"/>
<path d="M916 1495 c4 -8 10 -15 15 -15 5 0 9 7 9 15 0 8 -7 15 -15 15 -9 0
-12 -6 -9 -15z"/>
<path d="M1265 1500 c3 -5 8 -10 11 -10 2 0 4 5 4 10 0 6 -5 10 -11 10 -5 0
-7 -4 -4 -10z"/>
<path d="M3335 1500 c3 -5 11 -10 16 -10 6 0 7 5 4 10 -3 6 -11 10 -16 10 -6
0 -7 -4 -4 -10z"/>
<path d="M1345 1487 c11 -9 15 -17 8 -17 -7 0 10 -23 37 -51 27 -28 52 -59 55
-69 3 -9 14 -25 25 -35 11 -10 20 -24 20 -32 0 -7 16 -29 35 -49 31 -31 37
-33 58 -22 12 7 29 11 37 10 12 -2 12 -1 2 6 -8 6 4 9 34 9 33 0 41 -3 27 -8
-28 -10 -36 -37 -15 -48 13 -7 121 -31 139 -31 2 0 2 4 -1 9 -3 5 3 11 14 14
18 5 18 3 3 -19 -8 -13 -19 -21 -24 -18 -5 3 -9 0 -9 -5 0 -6 2 -11 4 -11 12
0 104 -20 120 -26 14 -5 17 -4 11 5 -6 10 -2 11 16 6 13 -4 25 -10 26 -14 5
-10 84 -4 96 8 14 14 27 14 27 1 0 -5 -6 -10 -14 -10 -8 0 -18 -5 -22 -11 -5
-9 1 -10 20 -5 15 4 26 2 26 -4 0 -5 7 -10 15 -10 8 0 15 3 15 8 0 4 21 5 46
3 33 -2 42 -6 33 -12 -9 -7 -5 -7 14 -3 21 5 26 3 22 -9 -4 -8 -16 -19 -28
-25 -15 -7 -17 -11 -6 -11 8 -1 26 10 39 24 23 25 39 28 52 10 5 -6 18 -6 38
2 16 6 28 8 26 4 -7 -11 68 -7 76 4 5 7 14 6 27 -2 16 -10 19 -10 15 0 -4 12
5 15 68 17 28 1 60 27 33 27 -8 0 -12 -4 -9 -9 3 -4 -2 -8 -11 -8 -12 0 -15 6
-10 20 8 24 -1 26 -21 5 -9 -8 -21 -15 -27 -15 -7 1 2 12 18 25 30 25 46 31
44 18 -3 -21 3 -24 25 -10 16 11 32 14 52 8 20 -5 24 -10 15 -15 -7 -5 -18 -3
-24 3 -15 15 -27 14 -27 -2 0 -18 46 -20 79 -2 16 8 31 11 35 8 3 -4 6 -1 6 6
0 9 -9 11 -27 7 -16 -3 -22 -3 -15 0 6 3 10 10 7 14 -3 5 -1 11 5 15 5 3 10 2
10 -3 0 -5 11 -12 25 -14 15 -3 22 -1 18 5 -4 6 2 8 15 5 12 -4 22 -2 22 3 0
4 8 6 18 2 15 -6 15 -4 -2 15 -11 12 -14 22 -8 22 7 0 12 -4 12 -10 0 -5 6 -7
14 -4 8 3 17 1 21 -5 9 -16 27 -13 55 10 21 17 21 20 5 14 -16 -5 -17 -4 -8 6
10 10 15 9 27 -1 9 -7 13 -17 10 -22 -4 -6 4 -4 17 3 13 7 27 12 32 11 12 -3
8 5 -10 19 -10 8 -14 9 -10 2 4 -6 3 -14 -2 -17 -18 -12 -20 11 -3 27 12 11
22 13 32 7 24 -15 36 -11 14 4 -18 14 -18 15 9 25 16 6 33 11 39 11 5 0 22 6
36 14 15 7 43 21 62 30 26 12 28 15 10 12 -25 -5 -25 -5 -4 12 11 9 31 28 44
42 13 14 19 18 14 10 -4 -8 6 -4 23 10 17 14 29 27 26 29 -2 3 11 10 29 15 34
12 50 36 24 36 -9 0 -16 -5 -16 -10 0 -6 -13 -9 -29 -8 -16 1 -40 -3 -53 -9
-21 -11 -131 -45 -153 -49 -5 0 -18 -5 -29 -9 -12 -5 -21 -3 -27 6 -7 11 -9
10 -9 -4 0 -14 -5 -17 -20 -12 -11 3 -20 2 -20 -3 0 -5 -11 -14 -25 -20 -34
-16 -44 -15 -22 2 16 12 16 14 2 20 -9 3 -13 2 -10 -4 3 -6 -3 -10 -14 -10
-10 0 -21 -4 -23 -10 -1 -5 -18 -10 -36 -12 -19 -1 -31 -7 -28 -14 3 -7 -6
-10 -25 -8 -17 2 -27 0 -24 -6 3 -5 -5 -8 -17 -8 -67 4 -129 -3 -122 -13 4 -8
0 -9 -15 -4 -11 3 -26 3 -32 -1 -17 -10 -239 -5 -386 9 -112 11 -142 11 -189
-1 -45 -11 -58 -12 -64 -2 -4 7 -13 9 -19 6 -6 -4 -11 -2 -11 5 0 7 -10 9 -25
7 -13 -3 -26 -1 -27 4 -2 5 -21 10 -43 11 -22 1 -42 5 -45 9 -3 4 -21 9 -41
12 -19 2 -51 11 -71 19 -26 11 -39 12 -47 4 -8 -8 -11 -8 -11 1 0 7 -7 12 -15
12 -9 0 -26 9 -37 20 -13 12 -29 18 -40 14 -10 -3 -18 -1 -18 5 0 6 -7 8 -15
5 -9 -4 -15 0 -15 9 0 8 -8 14 -17 13 -10 0 -17 4 -16 10 1 7 -10 11 -25 11
-15 0 -36 3 -47 8 l-20 8 20 -16z m1770 -97 c-3 -5 -11 -10 -16 -10 -6 0 -7 5
-4 10 3 6 11 10 16 10 6 0 7 -4 4 -10z m-1616 -46 c14 -12 -19 -1 -35 12 -18
14 -18 14 6 3 14 -6 27 -13 29 -15z m1341 2 c0 -3 -4 -8 -10 -11 -5 -3 -10 -1
-10 4 0 6 5 11 10 11 6 0 10 -2 10 -4z m-1287 -21 c19 -5 26 -12 23 -22 -3 -8
-1 -11 4 -8 6 4 23 1 39 -6 l29 -13 -21 -19 c-23 -20 -56 -17 -85 9 -9 8 -32
27 -50 43 l-33 28 33 -2 c18 -2 46 -6 61 -10z m517 -25 c0 -5 -12 -10 -27 -10
-22 0 -25 2 -13 10 20 13 40 13 40 0z m-539 -47 c13 -17 13 -17 -6 -3 -11 8
-22 16 -24 17 -2 2 0 3 6 3 6 0 17 -8 24 -17z m869 7 c0 -5 -4 -10 -10 -10 -5
0 -10 5 -10 10 0 6 5 10 10 10 6 0 10 -4 10 -10z m-735 -10 c-3 -5 -10 -10
-16 -10 -5 0 -9 5 -9 10 0 6 7 10 16 10 8 0 12 -4 9 -10z m-81 -19 c3 -5 -3
-11 -14 -14 -13 -3 -20 0 -20 9 0 15 26 19 34 5z m1343 3 c-3 -3 -12 -4 -19
-1 -8 3 -5 6 6 6 11 1 17 -2 13 -5z m-47 -34 c0 -5 -4 -10 -10 -10 -5 0 -10 5
-10 10 0 6 5 10 10 10 6 0 10 -4 10 -10z m-1143 -16 c-3 -3 -12 -4 -19 -1 -8
3 -5 6 6 6 11 1 17 -2 13 -5z m663 -54 c0 -5 -5 -10 -11 -10 -5 0 -7 5 -4 10
3 6 8 10 11 10 2 0 4 -4 4 -10z m-360 -22 c0 -5 -16 -8 -35 -8 -19 0 -35 4
-35 8 0 5 16 8 35 8 19 -1 35 -4 35 -8z"/>
<path d="M729 1469 c-1 -5 -2 -15 -3 -21 -1 -7 -9 -12 -18 -12 -10 1 -20 -7
-23 -17 -4 -11 -11 -19 -16 -19 -5 0 -9 -9 -9 -20 0 -11 -6 -20 -14 -20 -8 0
-18 -5 -22 -12 -5 -8 -2 -9 9 -5 10 4 28 2 42 -3 15 -6 25 -6 25 0 0 5 -9 10
-20 12 -19 3 -19 5 7 34 25 28 62 54 77 54 6 0 1 -27 -13 -62 -7 -18 -7 -28
-1 -28 6 0 10 5 10 10 0 6 8 10 18 11 10 0 12 3 5 6 -20 7 -16 19 20 54 17 17
27 29 20 25 -6 -3 -17 -1 -25 6 -16 15 -67 21 -69 7z"/>
<path d="M612 1390 c-12 -11 -26 -20 -32 -20 -5 0 -10 -6 -10 -14 0 -8 -8 -16
-17 -18 -10 -2 -14 -6 -8 -10 6 -4 26 7 44 23 19 16 41 29 50 30 10 0 12 2 3
6 -6 2 -10 9 -6 14 9 15 -1 10 -24 -11z"/>
<path d="M555 1391 c-11 -5 -23 -7 -26 -5 -14 8 -28 -22 -18 -36 8 -13 11 -13
22 0 6 9 23 24 37 33 26 18 19 21 -15 8z"/>
<path d="M715 1387 c-11 -7 -21 -12 -23 -13 -1 -1 4 -14 13 -30 8 -16 15 -23
15 -16 0 7 3 11 8 9 4 -3 7 10 7 29 0 19 0 34 0 33 0 0 -9 -6 -20 -12z"/>
<path d="M825 1380 c-3 -5 1 -10 9 -10 9 0 16 5 16 10 0 6 -4 10 -9 10 -6 0
-13 -4 -16 -10z"/>
<path d="M930 1370 c0 -5 4 -10 9 -10 6 0 13 5 16 10 3 6 -1 10 -9 10 -9 0
-16 -4 -16 -10z"/>
<path d="M4171 1356 c-9 -10 -8 -16 4 -26 13 -11 15 -8 15 14 0 30 -3 32 -19
12z"/>
<path d="M790 1350 c0 -5 5 -10 10 -10 6 0 10 5 10 10 0 6 -4 10 -10 10 -5 0
-10 -4 -10 -10z"/>
<path d="M896 1345 c-3 -9 -12 -12 -22 -8 -12 4 -15 3 -10 -6 5 -7 16 -9 28
-5 17 5 20 3 15 -10 -4 -10 -1 -16 8 -16 8 0 15 4 15 10 0 5 11 12 25 16 14 3
25 12 25 20 0 15 -16 19 -22 5 -1 -4 -13 -11 -25 -15 -18 -6 -22 -4 -17 8 3 9
2 16 -4 16 -5 0 -12 -7 -16 -15z"/>
<path d="M576 1315 c-18 -16 -26 -29 -20 -35 5 -5 18 4 32 26 12 18 21 34 20
34 -2 0 -16 -11 -32 -25z"/>
<path d="M480 1320 c0 -5 4 -10 9 -10 6 0 13 5 16 10 3 6 -1 10 -9 10 -9 0
-16 -4 -16 -10z"/>
<path d="M634 1315 c-16 -12 -17 -14 -3 -15 9 0 19 7 23 15 7 19 5 19 -20 0z"/>
<path d="M800 1314 c-20 -11 -21 -14 -7 -14 10 0 25 7 33 15 19 18 8 18 -26
-1z"/>
<path d="M517 1313 c-12 -12 -7 -22 8 -17 8 4 15 10 15 15 0 11 -14 12 -23 2z"/>
<path d="M690 1310 c0 -5 5 -10 11 -10 5 0 7 5 4 10 -3 6 -8 10 -11 10 -2 0
-4 -4 -4 -10z"/>
<path d="M970 1310 c0 -5 7 -10 16 -10 14 0 14 -2 3 -16 -12 -14 -14 -14 -25
0 -9 13 -17 14 -39 6 -20 -8 -31 -7 -43 2 -13 11 -15 10 -10 -9 4 -16 2 -20
-8 -16 -8 3 -14 -1 -14 -11 0 -10 -6 -13 -17 -9 -16 6 -16 4 1 -15 11 -12 14
-22 9 -22 -14 0 4 -86 24 -116 12 -19 12 -31 -1 -88 -9 -37 -25 -85 -37 -108
l-21 -42 -19 39 c-11 21 -25 43 -32 47 -9 6 -9 10 3 18 13 8 12 10 -2 10 -10
0 -18 4 -18 10 0 29 -84 97 -103 82 -7 -4 -22 -9 -35 -10 -35 -1 -78 -38 -96
-82 -23 -57 -20 -93 8 -117 24 -21 120 -48 137 -37 5 3 9 0 9 -6 0 -7 6 -10
13 -7 6 2 19 1 28 -4 11 -6 30 2 60 24 l44 32 -43 -52 c-23 -28 -63 -64 -87
-80 -25 -15 -45 -32 -45 -36 0 -4 19 5 43 21 23 16 46 30 50 30 5 0 17 10 27
22 14 16 25 20 42 15 13 -3 19 -3 13 2 -5 4 -11 14 -13 22 -2 11 1 11 20 -1
25 -17 26 -16 29 45 0 9 4 17 9 17 5 0 11 -8 13 -17 4 -14 5 -12 6 5 1 20 21
33 21 14 0 -4 9 -8 20 -9 25 -2 27 14 3 20 -10 3 -1 5 19 6 37 1 59 15 36 24
-7 2 -9 8 -5 13 5 5 14 1 21 -9 7 -9 16 -17 20 -17 11 0 6 18 -10 34 -14 15
-14 16 0 16 10 0 16 9 17 23 0 12 3 16 6 10 2 -7 9 -13 14 -13 4 0 5 8 2 17
-5 12 -2 15 10 10 13 -5 17 -1 17 14 0 21 -1 21 -27 4 l-28 -18 20 22 c18 21
18 24 4 34 -9 7 -13 19 -10 29 6 16 9 16 34 3 24 -12 31 -13 42 -1 10 10 11
16 3 24 -15 15 -4 26 17 18 9 -3 13 -11 9 -17 -4 -8 -3 -9 4 -5 7 4 12 14 12
22 0 8 5 14 11 14 5 0 7 5 3 12 -5 8 -10 7 -18 -4 -10 -14 -16 -12 -44 13 -35
31 -31 39 6 13 20 -14 24 -14 37 0 18 18 4 30 -24 21 -12 -3 -21 0 -25 11 -4
11 -13 14 -29 10 -14 -3 -31 1 -43 10 -18 14 -18 15 4 4 29 -14 53 7 45 39 -6
24 -30 29 -30 6 0 -8 4 -15 9 -15 4 0 8 -4 8 -10 0 -16 -26 -11 -43 8 -18 20
-23 37 -8 28 10 -6 25 24 16 32 -3 3 -5 2 -5 -2 0 -4 -9 -2 -20 4 -14 7 -20 7
-20 0z m65 -130 c-3 -5 -10 -10 -16 -10 -5 0 -9 5 -9 10 0 6 7 10 16 10 8 0
12 -4 9 -10z m22 -39 c20 -17 34 -57 22 -63 -8 -4 -79 45 -79 55 0 13 19 7 32
-11 17 -24 38 -36 38 -22 0 6 -12 22 -26 35 -31 29 -20 33 13 6z m-110 -163
c-2 -7 0 -21 5 -30 6 -14 5 -18 -7 -18 -9 0 -15 -7 -13 -16 2 -10 -3 -19 -9
-21 -15 -6 -17 23 -3 32 6 4 10 12 9 18 -3 27 2 47 12 47 6 0 9 -6 6 -12z m23
-14 c0 -8 -5 -12 -10 -9 -6 4 -8 11 -5 16 9 14 15 11 15 -7z m-130 -128 c0 -3
-4 -8 -10 -11 -5 -3 -10 -1 -10 4 0 6 5 11 10 11 6 0 10 -2 10 -4z"/>
<path d="M720 1296 c-17 -10 -30 -11 -42 -5 -10 5 -18 6 -18 2 0 -20 46 -28
77 -13 33 15 43 30 21 30 -7 -1 -24 -7 -38 -14z"/>
<path d="M90 1279 c0 -5 5 -7 10 -4 6 3 10 8 10 11 0 2 -4 4 -10 4 -5 0 -10
-5 -10 -11z"/>
<path d="M795 1264 c-16 -14 -25 -23 -20 -21 47 18 75 33 75 39 0 16 -26 7
-55 -18z"/>
<path d="M750 1270 c-9 -6 -10 -10 -3 -10 6 0 15 5 18 10 8 12 4 12 -15 0z"/>
<path d="M1098 1263 c6 -2 9 -10 6 -15 -4 -7 -2 -8 5 -4 13 9 5 26 -12 25 -9
0 -8 -2 1 -6z"/>
<path d="M660 1250 c-13 -8 -12 -10 3 -10 9 0 17 5 17 10 0 12 -1 12 -20 0z"/>
<path d="M3065 1250 c-3 -6 1 -7 9 -4 18 7 21 14 7 14 -6 0 -13 -4 -16 -10z"/>
<path d="M581 1229 c-12 -12 -20 -24 -17 -27 5 -4 46 35 46 45 0 7 -7 2 -29
-18z"/>
<path d="M714 1239 c-3 -5 4 -9 15 -9 10 0 22 -6 24 -12 4 -8 6 -7 6 3 1 18
-36 33 -45 18z"/>
<path d="M1277 1243 c-4 -3 -7 -16 -6 -27 0 -19 1 -19 10 3 10 24 8 36 -4 24z"/>
<path d="M1240 1219 c0 -5 5 -7 10 -4 6 3 10 8 10 11 0 2 -4 4 -10 4 -5 0 -10
-5 -10 -11z"/>
<path d="M706 1195 c-11 -8 -16 -15 -10 -15 5 0 18 7 28 15 11 8 16 15 10 15
-5 0 -18 -7 -28 -15z"/>
<path d="M1560 1174 c0 -13 3 -14 13 -5 8 6 17 8 20 4 4 -3 7 -1 7 5 0 7 -9
12 -20 12 -12 0 -20 -7 -20 -16z"/>
<path d="M1610 1164 c-19 -7 -29 -13 -22 -13 7 -1 11 -5 8 -10 -3 -4 10 -1 29
7 19 9 35 20 35 24 0 10 -6 9 -50 -8z"/>
<path d="M1665 1150 c-3 -5 -15 -10 -25 -10 -19 0 -19 -2 -4 -33 13 -27 22
-33 49 -34 19 -1 48 -11 65 -23 25 -18 30 -19 30 -6 0 9 -6 16 -14 16 -8 0
-16 7 -20 15 -3 8 -9 14 -13 13 -4 -1 -19 2 -32 6 -16 5 -26 4 -31 -4 -6 -9
-11 -7 -19 7 -13 25 -3 37 17 20 13 -10 14 -9 8 2 -5 8 -4 16 4 21 8 5 9 10 2
14 -6 3 -13 2 -17 -4z"/>
<path d="M1696 1131 c-12 -18 13 -32 43 -24 15 4 22 2 17 -5 -4 -6 1 -8 14 -5
30 8 14 23 -25 23 -18 0 -35 5 -37 12 -3 9 -6 9 -12 -1z"/>
<path d="M4315 1130 c-11 -5 -14 -9 -7 -9 6 -1 12 -8 12 -17 0 -11 -6 -14 -17
-10 -17 6 -17 5 0 -8 19 -15 23 -36 6 -36 -8 0 -7 -5 1 -15 7 -9 11 -17 9 -18
-2 -2 -19 -14 -36 -26 -18 -12 -33 -26 -33 -31 0 -5 -5 -21 -12 -37 -6 -15
-10 -32 -9 -38 5 -20 -11 -95 -19 -90 -20 13 -33 -171 -12 -184 18 -11 25 -53
11 -62 -11 -6 -11 -11 -1 -21 6 -6 12 -16 12 -22 0 -5 -3 -6 -7 -3 -10 11 -30
-25 -29 -50 2 -24 16 -45 16 -25 0 7 5 12 11 12 8 0 8 -4 -1 -15 -6 -8 -9 -19
-5 -24 4 -7 -1 -8 -12 -4 -15 5 -16 3 -5 -8 6 -7 12 -19 12 -27 0 -7 -5 -10
-12 -6 -7 3 -1 -5 14 -20 16 -15 25 -32 22 -41 -4 -9 -1 -15 7 -15 10 0 10 -3
1 -12 -9 -9 -15 -9 -24 0 -7 7 -16 12 -21 12 -4 0 5 -11 20 -25 24 -21 26 -26
13 -35 -13 -9 -13 -11 -1 -19 12 -8 12 -12 -2 -26 -23 -22 -21 -28 3 -15 18
10 19 8 10 -14 -6 -16 -6 -27 1 -31 5 -4 9 -3 8 2 -1 4 0 15 4 23 3 8 8 28 11
43 6 24 8 26 21 13 19 -19 19 -62 0 -70 -8 -3 -15 -11 -15 -18 0 -9 3 -8 10 2
6 10 8 -5 4 -47 l-5 -63 105 0 c99 0 104 1 99 20 -3 11 -15 30 -28 42 -28 29
-41 78 -23 89 10 7 9 9 -4 9 -10 0 -18 6 -18 13 0 8 -4 7 -10 -3 -8 -12 -10
-9 -8 10 3 26 34 57 46 45 3 -3 0 -10 -7 -14 -14 -9 -13 -11 27 -56 11 -13 11
-15 -2 -15 -9 0 -13 -6 -10 -15 5 -12 9 -12 30 3 29 21 30 32 3 32 -12 0 -18
4 -13 11 3 6 1 15 -5 19 -9 5 -9 10 1 18 9 7 19 8 28 2 12 -8 11 -10 -5 -10
-18 0 -16 -3 10 -26 23 -19 26 -27 16 -33 -7 -5 -10 -14 -7 -20 4 -6 13 -8 19
-4 7 4 5 -1 -3 -12 -14 -17 -13 -17 10 -10 24 8 53 36 44 44 -2 2 -10 -2 -19
-9 -20 -17 -19 -1 2 22 14 16 14 18 0 18 -10 0 -14 7 -11 22 2 13 2 17 -2 11
-3 -7 -13 -13 -22 -13 -12 0 -10 5 8 25 25 26 14 33 -23 14 -14 -7 -9 2 13 21
30 28 32 32 11 25 -20 -6 -23 -5 -17 11 4 10 1 21 -6 26 -10 6 -10 10 2 18 8
5 11 10 5 10 -11 0 -35 46 -35 66 0 14 24 25 69 31 19 2 42 8 52 13 25 14 52
12 85 -5 18 -9 23 -15 12 -15 -9 0 -20 5 -23 10 -8 13 -35 13 -35 1 0 -5 8
-12 18 -15 9 -2 -1 -2 -22 1 -28 4 -37 2 -32 -6 5 -7 -1 -11 -16 -11 -13 0
-32 -7 -42 -15 -10 -8 -23 -12 -29 -8 -5 3 -8 0 -5 -8 6 -17 100 -16 272 0 94
9 113 14 135 35 14 13 41 27 59 31 33 7 45 37 20 49 -10 5 -10 7 0 12 15 7 16
64 0 64 -9 0 -9 3 0 12 14 14 16 52 2 43 -5 -3 -10 -1 -10 4 0 6 5 11 10 11 6
0 10 14 10 30 0 17 -4 30 -10 30 -13 0 -32 -38 -25 -50 3 -6 -2 -10 -11 -10
-16 0 -15 -2 2 -21 18 -20 18 -21 0 -31 -10 -6 -26 -18 -35 -27 -10 -10 -23
-15 -31 -13 -8 3 -10 0 -5 -8 6 -10 1 -12 -20 -8 -28 6 -77 -14 -105 -43 -8
-8 -24 -19 -35 -23 -16 -6 -17 -9 -5 -16 8 -6 11 -10 5 -10 -33 1 -58 51 -33
66 8 5 9 2 5 -9 -11 -28 10 -29 38 -1 27 27 27 47 0 24 -19 -16 -20 -3 -1 16
18 17 36 18 36 2 0 -6 2 -9 5 -6 3 3 3 12 -1 21 -5 13 -10 14 -32 4 -15 -6
-29 -15 -32 -19 -3 -3 -12 -6 -20 -6 -46 3 -69 -4 -75 -21 -7 -22 -47 -32 -87
-21 -17 5 -26 5 -23 -1 9 -14 -35 -11 -49 4 -7 7 -12 22 -11 35 1 13 -2 25 -6
28 -5 2 -6 11 -2 19 3 8 1 15 -4 15 -9 0 -15 33 -15 88 0 12 -4 22 -10 22 -5
0 -6 9 -3 20 4 11 2 20 -4 20 -6 0 -8 7 -5 15 4 8 -1 26 -10 40 -9 14 -12 25
-6 25 5 0 10 7 10 15 0 8 -4 15 -9 15 -10 0 -8 61 3 78 5 8 2 10 -8 6 -19 -7
-21 7 -4 24 7 7 8 12 2 12 -5 0 -15 -5 -22 -12 -8 -8 -12 -8 -12 -1 0 6 7 13
15 16 11 5 13 20 9 74 -6 75 -18 95 -49 83z m35 -90 c0 -5 -4 -10 -10 -10 -5
0 -10 5 -10 10 0 6 5 10 10 10 6 0 10 -4 10 -10z m-38 -72 c-7 -7 -12 -8 -12
-2 0 14 12 26 19 19 2 -3 -1 -11 -7 -17z m13 -28 c3 -5 2 -10 -4 -10 -5 0 -13
5 -16 10 -3 6 -2 10 4 10 5 0 13 -4 16 -10z m9 -45 c-5 -12 -10 -13 -20 -4
-19 15 -18 19 6 19 13 0 18 -5 14 -15z m-7 -57 c-3 -8 -6 -5 -6 6 -1 11 2 17
5 13 3 -3 4 -12 1 -19z m43 -138 c0 -5 -4 -10 -9 -10 -6 0 -13 5 -16 10 -3 6
1 10 9 10 9 0 16 -4 16 -10z m-6 -35 c-4 -8 -11 -15 -16 -15 -6 0 -5 6 2 15 7
8 14 15 16 15 2 0 1 -7 -2 -15z m-29 -35 c3 -5 1 -10 -4 -10 -6 0 -11 5 -11
10 0 6 2 10 4 10 3 0 8 -4 11 -10z m45 0 c0 -5 -2 -10 -4 -10 -3 0 -8 5 -11
10 -3 6 -1 10 4 10 6 0 11 -4 11 -10z m-26 -47 c-3 -33 -11 -39 -19 -14 -3 12
-11 21 -16 21 -5 0 -9 4 -9 9 0 5 11 9 23 9 20 0 23 -5 21 -25z m-24 -35 c0
-16 -3 -19 -11 -11 -6 6 -8 16 -5 22 11 17 16 13 16 -11z m-5 -38 c3 -5 1 -10
-4 -10 -6 0 -11 5 -11 10 0 6 2 10 4 10 3 0 8 -4 11 -10z m350 0 c-3 -5 -18
-10 -33 -9 l-27 1 25 8 c35 11 42 11 35 0z m275 -10 c0 -5 -7 -10 -16 -10 -8
0 -12 5 -9 10 3 6 10 10 16 10 5 0 9 -4 9 -10z m-63 -6 c-3 -3 -12 -4 -19 -1
-8 3 -5 6 6 6 11 1 17 -2 13 -5z m-439 -27 l31 -23 -32 -19 c-18 -11 -34 -18
-37 -17 -3 0 -15 -1 -27 -4 -29 -8 -69 14 -54 29 14 14 15 30 1 22 -5 -3 -10
-1 -10 5 0 6 12 9 28 8 17 -2 26 1 25 10 -5 20 41 14 75 -11z m-228 3 c0 -5
-2 -10 -4 -10 -3 0 -8 5 -11 10 -3 6 -1 10 4 10 6 0 11 -4 11 -10z m580 6 c0
-3 -4 -8 -10 -11 -5 -3 -10 -1 -10 4 0 6 5 11 10 11 6 0 10 -2 10 -4z m-425
-96 c-6 -10 -45 -1 -45 10 0 4 11 5 25 2 14 -2 23 -8 20 -12z m-155 -30 c0 -5
-5 -10 -11 -10 -5 0 -7 5 -4 10 3 6 8 10 11 10 2 0 4 -4 4 -10z m204 -5 c-4
-9 0 -15 10 -15 9 0 16 -4 16 -10 0 -5 -4 -10 -9 -10 -14 0 -33 28 -26 40 9
15 15 12 9 -5z m-37 -29 c-13 -10 -15 -16 -6 -21 6 -4 15 -2 19 5 6 9 12 9 29
-1 22 -15 28 -29 11 -29 -5 0 -10 -7 -10 -16 0 -8 4 -13 9 -9 5 3 12 1 15 -4
4 -5 2 -12 -3 -15 -5 -4 -13 -1 -16 4 -4 7 -19 9 -35 5 -17 -4 -31 -2 -36 6
-5 8 -2 10 8 6 10 -3 25 4 39 19 24 26 8 34 -17 9 -9 -8 -20 -15 -26 -15 -6 0
-8 3 -5 7 4 3 2 12 -4 20 -14 16 5 43 30 43 14 -1 14 -2 -2 -14z m-137 -66 c0
-5 -4 -10 -10 -10 -5 0 -10 5 -10 10 0 6 5 10 10 10 6 0 10 -4 10 -10z m30
-20 c0 -5 -2 -10 -4 -10 -3 0 -8 5 -11 10 -3 6 -1 10 4 10 6 0 11 -4 11 -10z"/>
<path d="M1289 1084 c-10 -13 -10 -17 2 -25 8 -5 21 -8 29 -8 11 1 10 3 -2 6
-10 2 -18 8 -18 13 0 5 8 14 18 19 15 9 15 10 1 11 -9 0 -22 -7 -30 -16z"/>
<path d="M1365 1090 c-3 -5 -1 -10 4 -10 6 0 11 5 11 10 0 6 -2 10 -4 10 -3 0
-8 -4 -11 -10z"/>
<path d="M1191 1086 c2 -2 18 -6 34 -10 22 -5 26 -4 15 4 -14 9 -59 15 -49 6z"/>
<path d="M1778 1073 c6 -2 18 -2 25 0 6 3 1 5 -13 5 -14 0 -19 -2 -12 -5z"/>
<path d="M1855 1060 c10 -11 23 -20 28 -20 6 0 0 9 -13 20 -13 11 -25 20 -28
20 -3 0 3 -9 13 -20z"/>
<path d="M1885 1071 c-3 -6 3 -9 14 -8 11 0 17 5 15 9 -7 11 -22 10 -29 -1z"/>
<path d="M1373 1049 c11 -17 14 -16 20 7 1 4 -6 8 -15 10 -14 2 -15 -1 -5 -17z"/>
<path d="M1046 1047 c3 -10 9 -15 12 -12 3 3 0 11 -7 18 -10 9 -11 8 -5 -6z"/>
<path d="M1800 1049 c0 -5 5 -7 10 -4 6 3 10 8 10 11 0 2 -4 4 -10 4 -5 0 -10
-5 -10 -11z"/>
<path d="M1930 1050 c-9 -6 -10 -10 -3 -10 6 0 15 5 18 10 8 12 4 12 -15 0z"/>
<path d="M2075 1050 c3 -5 13 -10 21 -10 8 0 12 5 9 10 -3 6 -13 10 -21 10 -8
0 -12 -4 -9 -10z"/>
<path d="M2010 1041 c0 -6 9 -9 19 -8 11 0 17 5 15 9 -7 11 -34 10 -34 -1z"/>
<path d="M1825 1030 c3 -5 11 -10 16 -10 6 0 7 5 4 10 -3 6 -11 10 -16 10 -6
0 -7 -4 -4 -10z"/>
<path d="M1955 1030 c-3 -5 -1 -10 4 -10 6 0 11 5 11 10 0 6 -2 10 -4 10 -3 0
-8 -4 -11 -10z"/>
<path d="M2165 1030 c-4 -6 -16 -8 -28 -5 -21 6 -21 5 -4 -8 21 -17 54 -12 54
9 0 16 -13 19 -22 4z"/>
<path d="M1870 1015 c-10 -12 -9 -16 4 -21 8 -3 21 -4 28 -1 8 3 5 6 -7 7 -14
1 -10 5 15 15 l35 13 -31 1 c-17 1 -37 -6 -44 -14z"/>
<path d="M4278 1023 c7 -3 16 -2 19 1 4 3 -2 6 -13 5 -11 0 -14 -3 -6 -6z"/>
<path d="M1940 1000 c0 -13 18 -22 24 -11 3 5 -1 11 -9 15 -8 3 -15 1 -15 -4z"/>
<path d="M2020 1000 c-8 -5 -10 -10 -5 -10 6 0 17 5 25 10 8 5 11 10 5 10 -5
0 -17 -5 -25 -10z"/>
<path d="M1838 983 c7 -3 16 -2 19 1 4 3 -2 6 -13 5 -11 0 -14 -3 -6 -6z"/>
<path d="M1918 973 c7 -3 16 -2 19 1 4 3 -2 6 -13 5 -11 0 -14 -3 -6 -6z"/>
<path d="M1098 963 c7 -3 16 -2 19 1 4 3 -2 6 -13 5 -11 0 -14 -3 -6 -6z"/>
<path d="M1081 931 c20 -16 25 -17 37 -4 8 8 21 12 28 9 8 -3 14 -1 14 4 0 14
-34 12 -49 -2 -11 -10 -14 -10 -18 0 -3 6 -12 12 -20 12 -11 0 -9 -5 8 -19z"/>
<path d="M306 882 c-3 -5 -19 -12 -35 -15 -16 -3 -40 -16 -53 -29 -25 -23 -43
-68 -28 -68 5 0 11 -13 15 -29 8 -37 82 -107 123 -116 18 -3 32 -10 32 -14 0
-14 70 -4 90 14 25 22 37 82 21 107 -6 10 -9 29 -6 41 5 19 -3 32 -39 65 -25
23 -54 42 -65 42 -11 0 -26 3 -34 6 -8 3 -18 1 -21 -4z"/>
<path d="M948 853 c6 -2 18 -2 25 0 6 3 1 5 -13 5 -14 0 -19 -2 -12 -5z"/>
<path d="M1575 790 c3 -5 8 -10 11 -10 2 0 4 5 4 10 0 6 -5 10 -11 10 -5 0 -7
-4 -4 -10z"/>
<path d="M1610 748 c0 -7 7 -22 15 -32 12 -16 15 -17 15 -4 0 9 6 19 13 21 7
3 5 6 -5 6 -10 1 -18 6 -18 11 0 6 -4 10 -10 10 -5 0 -10 -6 -10 -12z"/>
<path d="M1967 737 c-3 -7 5 -13 19 -13 29 -2 30 2 5 15 -14 8 -20 7 -24 -2z"/>
<path d="M164 694 c7 -22 14 -30 22 -23 6 5 13 8 15 6 2 -1 -1 3 -8 9 -7 6
-13 18 -13 26 0 8 -6 15 -13 15 -10 0 -11 -8 -3 -33z"/>
<path d="M27 703 c-27 -14 -28 -17 -26 -83 1 -38 6 -67 10 -64 5 3 9 0 9 -6 0
-6 10 -15 23 -21 19 -8 17 -9 -10 -5 l-33 6 0 -265 0 -265 226 0 c209 0 225 1
222 18 -1 9 0 22 3 27 3 6 17 56 30 112 13 57 27 99 33 96 5 -4 7 1 3 10 -3
10 -3 17 2 17 5 0 11 13 14 30 4 16 16 49 27 72 11 23 20 50 20 60 0 25 33 87
64 120 l25 26 -57 4 c-31 2 -73 -1 -92 -8 -19 -6 -56 -12 -82 -12 -29 -1 -66
-11 -97 -27 -34 -17 -67 -25 -100 -25 -50 0 -74 13 -46 24 24 9 17 58 -15 95
-16 19 -26 39 -23 45 3 6 3 8 -2 4 -4 -4 -19 2 -33 12 -29 23 -56 24 -95 3z"/>
<path d="M605 670 c3 -5 8 -10 11 -10 2 0 4 5 4 10 0 6 -5 10 -11 10 -5 0 -7
-4 -4 -10z"/>
<path d="M195 640 c3 -5 8 -10 11 -10 2 0 4 5 4 10 0 6 -5 10 -11 10 -5 0 -7
-4 -4 -10z"/>
<path d="M228 633 c7 -3 16 -2 19 1 4 3 -2 6 -13 5 -11 0 -14 -3 -6 -6z"/>
<path d="M4927 613 c-4 -3 -7 -11 -7 -17 0 -6 5 -5 12 2 6 6 9 14 7 17 -3 3
-9 2 -12 -2z"/>
<path d="M335 590 c-3 -5 -1 -10 4 -10 6 0 11 5 11 10 0 6 -2 10 -4 10 -3 0
-8 -4 -11 -10z"/>
<path d="M228 583 c7 -3 16 -2 19 1 4 3 -2 6 -13 5 -11 0 -14 -3 -6 -6z"/>
<path d="M3200 503 c0 -12 5 -25 10 -28 13 -8 13 15 0 35 -8 12 -10 11 -10 -7z"/>
<path d="M1146 395 c-11 -8 -15 -15 -9 -15 6 0 16 7 23 15 16 19 11 19 -14 0z"/>
<path d="M4465 110 c3 -5 10 -10 16 -10 5 0 9 5 9 10 0 6 -7 10 -16 10 -8 0
-12 -4 -9 -10z"/>
<path d="M4538 86 c-10 -7 -15 -16 -11 -19 3 -4 -1 -7 -10 -7 -17 0 -33 -18
-23 -27 3 -3 19 8 36 25 16 18 32 27 36 21 3 -6 -4 -19 -17 -30 -30 -26 -17
-36 19 -13 24 16 28 23 21 42 -9 25 -26 28 -51 8z"/>
<path d="M4470 70 c0 -5 5 -10 10 -10 6 0 10 5 10 10 0 6 -4 10 -10 10 -5 0
-10 -4 -10 -10z"/>
<path d="M4252 30 c0 -19 2 -27 5 -17 2 9 2 25 0 35 -3 9 -5 1 -5 -18z"/>
<path d="M4585 30 c3 -5 8 -10 11 -10 2 0 4 5 4 10 0 6 -5 10 -11 10 -5 0 -7
-4 -4 -10z"/>
</g>
</svg>
