<?xml version="1.0" standalone="no"?>
<!DOCTYPE svg PUBLIC "-//W3C//DTD SVG 20010904//EN"
 "http://www.w3.org/TR/2001/REC-SVG-20010904/DTD/svg10.dtd">
<svg version="1.0" xmlns="http://www.w3.org/2000/svg"
 width="627.000000pt" height="784.000000pt" viewBox="0 0 627.000000 784.000000"
 preserveAspectRatio="xMidYMid meet">

<g transform="translate(0.000000,784.000000) scale(0.100000,-0.100000)"
fill="#000000" stroke="none">
<path d="M0 3920 l0 -3920 3135 0 3135 0 0 3920 0 3920 -1454 0 c-1134 -1
-1456 -3 -1459 -13 -4 -9 -6 -9 -6 1 -1 10 -44 12 -196 12 -113 -1 -195 -5
-195 -11 0 -5 -5 -9 -11 -9 -5 0 -7 5 -4 10 4 6 -5 10 -19 10 -14 0 -26 -4
-26 -10 0 -5 -5 -10 -11 -10 -5 0 -7 5 -4 10 9 15 -148 13 -164 -2 -9 -9 -12
-9 -7 -1 5 8 -322 12 -1354 12 l-1360 1 0 -3920z m2394 3876 c-10 -8 -21 -12
-23 -10 -3 2 4 11 15 18 10 8 21 12 23 10 3 -2 -4 -11 -15 -18z m-357 -8 c-3
-8 -6 -5 -6 6 -1 11 2 17 5 13 3 -3 4 -12 1 -19z m311 15 c-10 -2 -18 -9 -18
-14 0 -5 -5 -9 -11 -9 -8 0 -8 5 1 15 7 8 20 14 29 14 13 -1 13 -2 -1 -6z
m1152 3 c0 -2 -8 -10 -17 -17 -16 -13 -17 -12 -4 4 13 16 21 21 21 13z m120
-6 c0 -5 -5 -10 -11 -10 -5 0 -7 5 -4 10 3 6 8 10 11 10 2 0 4 -4 4 -10z
m-1350 -10 c0 -5 -5 -10 -11 -10 -5 0 -7 5 -4 10 3 6 8 10 11 10 2 0 4 -4 4
-10z m430 -20 c0 -5 -5 -10 -11 -10 -5 0 -7 5 -4 10 3 6 8 10 11 10 2 0 4 -4
4 -10z m60 0 c0 -5 -5 -10 -11 -10 -5 0 -7 5 -4 10 3 6 8 10 11 10 2 0 4 -4 4
-10z m340 -10 c0 -5 -5 -10 -11 -10 -5 0 -7 5 -4 10 3 6 8 10 11 10 2 0 4 -4
4 -10z m290 2 c0 -4 -10 -13 -22 -21 -23 -14 -23 -14 -4 8 20 22 26 25 26 13z
m-1050 -6 c0 -3 -4 -8 -10 -11 -5 -3 -10 -1 -10 4 0 6 5 11 10 11 6 0 10 -2
10 -4z m1570 -6 c0 -5 -5 -10 -11 -10 -5 0 -7 5 -4 10 3 6 8 10 11 10 2 0 4
-4 4 -10z m-400 -34 c0 -3 -4 -8 -10 -11 -5 -3 -10 -1 -10 4 0 6 5 11 10 11 6
0 10 -2 10 -4z m-1353 -22 c-3 -3 -12 -4 -19 -1 -8 3 -5 6 6 6 11 1 17 -2 13
-5z m1903 -14 c0 -5 -5 -10 -11 -10 -5 0 -7 5 -4 10 3 6 8 10 11 10 2 0 4 -4
4 -10z m-890 -50 c0 -5 -5 -10 -11 -10 -5 0 -7 5 -4 10 3 6 8 10 11 10 2 0 4
-4 4 -10z m570 -272 c161 -58 161 -58 190 -78 14 -9 69 -40 124 -69 54 -28
110 -60 123 -71 14 -11 30 -17 37 -13 6 3 8 3 4 -2 -4 -4 14 -24 40 -43 115
-86 231 -226 287 -345 19 -43 35 -80 35 -84 0 -3 6 -14 13 -22 26 -31 96 -227
112 -315 9 -50 20 -97 24 -105 15 -29 22 -83 10 -75 -6 3 -4 -4 4 -17 27 -44
40 -245 27 -436 -6 -94 -8 -184 -4 -198 4 -14 7 -136 8 -270 0 -134 5 -247 9
-251 4 -5 17 -3 27 4 13 8 20 9 20 1 0 -5 4 -8 8 -5 9 5 43 -29 41 -42 -3 -19
2 -23 15 -12 12 9 15 8 14 -7 0 -10 2 -33 5 -50 4 -29 2 -33 -20 -33 -21 0
-22 3 -13 20 11 21 6 40 -10 40 -5 0 -7 -33 -4 -77 4 -43 7 -93 8 -112 1 -24
7 -36 21 -42 24 -9 61 -11 52 -3 -8 9 18 34 35 34 18 0 98 -51 122 -78 10 -12
21 -36 25 -53 3 -18 15 -37 26 -43 11 -6 48 -32 81 -59 44 -33 67 -45 80 -40
14 5 16 3 10 -12 -4 -11 -4 -16 0 -12 4 4 14 1 22 -6 13 -10 14 -9 7 3 -8 13
-7 13 9 1 9 -8 15 -20 12 -27 -3 -7 2 -18 10 -25 12 -10 13 -9 8 5 -3 9 -2 16
3 16 5 0 14 -15 21 -32 9 -24 15 -29 21 -20 7 11 9 11 14 -2 4 -9 2 -16 -4
-16 -6 0 -7 -5 -4 -10 4 -6 11 -8 16 -4 20 12 40 -18 33 -51 -4 -22 -1 -35 11
-45 36 -30 78 -147 109 -305 16 -79 25 -117 45 -185 34 -119 38 -149 24 -154
-8 -3 -11 -10 -8 -16 3 -5 -1 -10 -9 -10 -18 0 -40 -36 -31 -50 3 -6 -2 -10
-11 -10 -16 0 -16 -2 1 -20 18 -20 18 -21 -1 -35 -10 -8 -31 -20 -46 -27 -15
-7 -24 -16 -21 -22 4 -5 -6 -7 -22 -4 -28 6 -83 -17 -98 -40 -5 -7 -21 -18
-35 -24 -25 -10 -26 -11 -7 -18 13 -6 15 -9 5 -9 -8 0 -25 7 -38 17 -21 16
-21 19 -6 37 13 16 15 17 10 3 -3 -10 -1 -20 3 -22 11 -7 67 41 58 50 -3 4
-13 1 -21 -6 -13 -10 -19 -9 -32 5 -10 10 -25 14 -38 11 -12 -3 -26 -6 -33 -6
-6 0 -14 -9 -18 -19 -7 -22 -47 -32 -87 -21 -17 5 -26 5 -23 -1 4 -5 -5 -9
-18 -9 -24 0 -53 42 -42 60 3 5 1 11 -4 15 -6 3 -7 13 -4 22 5 12 2 15 -10 10
-15 -5 -16 -3 -7 13 7 12 7 27 0 44 -5 14 -7 33 -4 41 4 8 1 15 -6 15 -7 0 -9
8 -5 20 4 11 2 20 -4 20 -6 0 -8 7 -5 15 4 8 -1 26 -9 39 -12 18 -13 26 -4 35
9 9 9 14 1 19 -12 8 -12 61 0 80 5 8 2 10 -8 6 -19 -7 -21 7 -4 24 7 7 8 12 2
12 -6 0 -15 -5 -22 -12 -8 -8 -12 -8 -12 -1 0 6 7 13 15 16 11 5 13 20 9 74
-6 75 -18 95 -49 83 -11 -5 -14 -9 -7 -9 6 -1 12 -8 12 -16 0 -8 -6 -15 -12
-16 -10 0 -10 -2 0 -6 15 -6 16 -33 1 -33 -8 0 -8 -4 1 -15 13 -16 0 -35 -33
-48 -9 -4 -19 -12 -22 -19 -2 -7 -9 -26 -16 -43 -6 -16 -12 -49 -13 -73 -1
-24 -7 -47 -14 -51 -24 -15 -35 -191 -12 -191 15 0 22 -53 8 -61 -10 -7 -10
-11 0 -21 14 -14 16 -32 3 -24 -5 3 -12 -2 -16 -12 -11 -24 -12 -63 -3 -68 4
-3 8 0 8 5 0 6 5 11 11 11 8 0 8 -4 -1 -15 -6 -8 -8 -20 -4 -27 6 -10 3 -9 -9
1 -10 8 -17 9 -17 3 0 -6 5 -14 10 -17 15 -9 12 -37 -2 -30 -7 4 0 -5 15 -19
16 -14 25 -31 22 -36 -3 -5 1 -20 9 -32 14 -20 13 -23 -7 -40 -17 -15 -19 -21
-8 -28 12 -7 11 -11 -2 -25 -22 -21 -21 -25 3 -20 17 3 19 1 10 -15 -7 -13 -7
-21 0 -25 6 -4 10 -3 9 2 -1 4 0 15 4 23 3 8 8 28 11 43 6 24 8 26 21 13 19
-19 19 -62 0 -70 -8 -3 -15 -13 -14 -23 0 -16 1 -16 9 2 5 12 6 -13 3 -64 -8
-113 -23 -161 -18 -56 3 65 2 70 -4 30 -23 -146 -24 -158 -13 -151 14 8 27
-55 18 -90 -5 -17 -3 -23 4 -19 5 3 10 1 10 -4 0 -6 -4 -11 -10 -11 -5 0 -10
-7 -10 -16 0 -8 4 -12 10 -9 5 3 10 -1 10 -10 0 -10 -5 -13 -11 -9 -9 5 -10
-4 -4 -32 4 -21 9 -55 11 -74 2 -19 10 -87 18 -150 21 -163 25 -230 12 -230
-7 0 -6 -4 2 -8 8 -6 14 -44 16 -116 2 -59 7 -110 10 -113 3 -4 6 -1 6 5 0 7
4 12 8 12 5 0 7 -14 4 -30 -3 -18 0 -30 7 -30 6 0 11 -15 11 -34 0 -19 4 -37
9 -41 6 -3 4 -18 -5 -35 -8 -17 -21 -44 -29 -61 -8 -17 -13 -35 -9 -40 3 -5
-2 -9 -11 -9 -14 0 -16 -6 -10 -28 6 -25 5 -26 -8 -8 -13 18 -14 17 -12 -15 2
-33 -18 -125 -30 -138 -4 -3 -3 7 1 23 5 21 4 27 -5 22 -6 -4 -9 -11 -6 -15 6
-11 -22 -47 -31 -39 -4 4 -1 14 6 23 13 16 10 18 -14 9 -8 -3 -12 -12 -9 -20
3 -8 0 -14 -6 -14 -6 0 -11 -11 -11 -25 0 -14 -4 -25 -10 -25 -5 0 -10 -7 -10
-15 0 -8 -4 -15 -10 -15 -5 0 -7 -6 -4 -14 3 -7 -2 -16 -10 -19 -9 -4 -13 -12
-10 -20 2 -7 -4 -21 -15 -31 -11 -10 -18 -23 -15 -27 3 -5 1 -9 -4 -9 -8 0
-21 -42 -22 -65 0 -10 -31 -65 -36 -65 -3 0 -4 16 -3 34 2 19 0 39 -5 43 -5 4
-6 -24 -4 -64 3 -40 1 -76 -4 -81 -12 -12 -46 -164 -61 -271 l-12 -84 -89 0
c-48 0 -97 -2 -106 -4 -21 -6 -16 -33 6 -33 19 0 18 -15 -3 -31 -16 -13 -17
-12 -5 3 11 14 9 17 -18 23 -16 4 -30 11 -30 16 0 14 -27 11 -42 -4 -18 -19
-37 -10 -31 13 4 14 0 20 -11 20 -9 0 -16 3 -16 8 0 4 -40 7 -88 6 -96 -1
-152 -20 -179 -60 -8 -13 -21 -20 -29 -17 -8 3 -14 1 -14 -3 0 -5 -3 -20 -7
-33 -4 -17 -3 -22 5 -17 7 4 12 2 12 -3 0 -6 -4 -11 -9 -11 -14 0 -33 28 -26
40 4 6 3 9 -2 8 -11 -4 -46 23 -59 46 -10 20 -68 27 -92 12 -7 -4 -12 -1 -12
8 0 13 -12 16 -62 16 -85 0 -135 -28 -166 -92 -21 -46 -21 -49 -5 -83 9 -19
23 -35 30 -35 7 0 13 -4 13 -10 0 -5 8 -10 18 -10 9 0 26 -8 37 -16 18 -15 14
-15 -60 -9 -44 4 -83 12 -87 19 -4 6 -8 27 -8 46 -1 56 -5 84 -13 98 -5 6 -5
17 -2 22 3 5 2 10 -3 10 -8 0 -15 27 -24 88 -1 6 -6 12 -11 12 -5 0 -4 7 4 16
10 12 10 17 1 23 -13 8 36 68 73 89 17 10 18 13 5 22 -13 9 -13 11 -1 19 13 8
13 12 0 27 -12 16 -12 17 2 12 13 -5 16 0 13 33 -2 25 1 39 8 39 9 0 9 3 0 12
-16 16 -15 28 3 28 15 0 19 10 16 43 -1 9 2 17 6 17 11 0 49 62 45 74 -2 5 6
15 18 23 11 8 20 21 20 29 0 8 4 14 10 14 5 0 6 8 3 17 -5 12 -2 15 9 10 12
-4 14 -1 10 15 -3 15 -1 19 7 14 16 -11 52 34 48 61 -3 14 0 20 10 16 7 -3 13
2 13 11 0 9 5 16 12 16 6 0 3 9 -7 20 -18 19 -17 20 2 20 12 0 24 7 27 16 3 9
12 14 19 11 21 -8 17 28 -4 41 -24 15 -39 8 -39 -19 0 -11 4 -18 10 -14 5 3 7
12 3 20 -7 19 4 19 23 0 11 -11 12 -15 3 -15 -7 0 -21 -7 -31 -17 -17 -15 -18
-15 -18 0 0 21 -18 22 -39 3 -47 -43 -171 -169 -171 -174 0 -3 -20 -30 -45
-60 -25 -30 -45 -60 -45 -66 0 -17 -50 -62 -78 -71 -23 -7 -26 -32 -3 -28 6 2
11 -4 11 -12 0 -12 -6 -11 -32 5 -40 24 -48 25 -48 4 0 -10 -6 -14 -15 -10 -8
3 -15 1 -15 -4 0 -6 -7 -10 -15 -10 -8 0 -15 -5 -15 -11 0 -6 -7 -8 -16 -5 -9
3 -12 2 -9 -5 4 -6 1 -10 -6 -8 -29 3 -48 -2 -64 -17 -8 -9 -23 -13 -31 -10
-12 5 -15 2 -10 -10 5 -13 1 -15 -19 -10 -15 4 -25 2 -25 -4 0 -7 -8 -9 -20
-5 -11 4 -20 2 -20 -4 0 -6 -10 -11 -22 -11 -52 -1 -286 -19 -328 -25 -25 -4
-96 -7 -157 -7 -62 -1 -113 -5 -113 -10 0 -4 -5 -8 -11 -8 -6 0 -9 7 -5 15 7
19 -30 21 -38 3 -5 -10 -7 -10 -12 0 -5 10 -9 10 -21 0 -12 -10 -14 -9 -11 7
4 27 -28 32 -37 6 -6 -19 -9 -20 -33 -7 -15 7 -33 11 -41 8 -8 -2 -11 0 -8 5
4 6 -6 10 -21 11 -15 1 -48 5 -74 10 -37 7 -50 6 -59 -4 -9 -11 -6 -14 15 -15
14 -1 31 -3 36 -4 6 -1 13 -3 16 -4 4 0 0 -9 -7 -18 -13 -16 -11 -16 14 1 28
17 29 17 23 -2 -4 -11 -2 -23 4 -27 5 -3 10 0 10 8 0 8 9 17 21 20 19 5 20 4
5 -18 -19 -28 -20 -35 -6 -35 6 0 10 6 10 13 0 7 9 18 20 25 24 15 26 5 3 -20
-9 -11 -11 -18 -5 -18 7 0 12 5 12 12 0 6 3 8 7 5 3 -4 13 -1 21 6 13 10 14 8
8 -11 -10 -29 5 -28 38 3 15 14 32 25 39 25 7 0 0 -11 -14 -23 -27 -24 -45
-82 -29 -92 6 -4 10 8 10 25 0 25 4 31 18 28 9 -2 18 -13 20 -24 3 -19 9 -21
63 -19 32 1 62 4 64 7 3 3 21 0 39 -6 30 -9 32 -12 18 -22 -34 -25 -4 -22 32
2 31 21 40 24 47 13 5 -8 7 -22 5 -32 -2 -9 0 -17 4 -17 13 0 25 23 22 42 -2
10 2 18 8 18 6 0 8 -5 4 -11 -3 -6 0 -15 7 -20 11 -8 11 -11 -4 -20 -12 -7
-15 -14 -9 -22 9 -11 9 -21 3 -73 -2 -23 -33 -24 -63 -2 -33 23 -147 40 -134
20 4 -6 -2 -8 -15 -5 -12 4 -32 -3 -48 -15 -15 -11 -44 -23 -63 -26 -49 -8
-88 -24 -88 -36 0 -5 7 -10 15 -10 8 0 15 5 15 11 0 6 9 9 20 6 11 -3 18 -1
14 4 -7 11 17 11 35 0 8 -5 9 -11 3 -15 -5 -3 -7 -17 -4 -31 3 -20 0 -25 -16
-25 -20 0 -36 25 -26 41 3 5 -2 9 -11 9 -9 0 -13 -4 -10 -10 3 -6 -1 -7 -9 -4
-9 3 -16 1 -16 -5 0 -6 -8 -11 -17 -11 -13 0 -15 2 -5 8 7 5 10 16 7 24 -4 9
-1 19 5 23 8 5 8 11 -1 21 -10 12 -9 13 5 8 17 -6 21 4 8 22 -7 11 -14 12 -97
17 -27 2 -64 6 -81 10 -26 7 -38 3 -75 -25 -24 -19 -52 -49 -62 -68 -10 -19
-23 -33 -30 -31 -6 2 -23 3 -37 3 -24 -1 -24 -1 -5 10 46 25 83 72 53 66 -8
-2 -12 5 -11 17 1 11 0 14 -3 8 -8 -18 -24 -16 -24 3 0 12 -6 15 -21 11 -15
-4 -19 -2 -15 9 7 17 -6 18 -22 2 -7 -7 -12 -8 -12 -2 0 6 5 15 11 21 9 9 7
10 -10 6 -12 -3 -21 -1 -21 6 0 8 -18 11 -55 10 -30 -1 -55 -6 -55 -11 0 -4
-6 -8 -14 -8 -8 0 -27 -11 -43 -24 l-28 -24 -39 69 c-22 38 -45 69 -52 69 -7
0 -15 6 -17 13 -15 36 -4 -28 12 -76 11 -32 18 -57 15 -57 -12 0 -35 77 -49
167 -9 54 -23 122 -31 152 -10 36 -13 70 -8 107 3 30 2 54 -2 54 -5 0 -18 20
-29 45 -11 25 -23 45 -26 45 -4 0 -10 13 -14 30 -4 16 -11 30 -16 30 -5 0 -9
6 -9 14 0 7 -9 25 -20 39 -11 14 -20 35 -20 46 0 12 -4 21 -9 21 -5 0 -12 13
-16 29 -3 16 -12 35 -20 41 -30 25 -84 228 -100 380 -3 25 -9 46 -13 48 -4 1
-6 20 -4 42 3 32 1 40 -12 40 -9 0 -16 5 -16 11 0 5 4 8 9 4 5 -3 12 -1 16 5
3 6 -1 13 -9 16 -9 3 -16 10 -16 16 0 5 5 6 10 3 5 -3 10 1 10 9 0 9 -7 16
-15 16 -8 0 -15 7 -15 15 0 9 6 12 18 9 16 -5 16 -5 -1 9 -19 16 -23 37 -6 37
8 0 8 4 2 13 -5 6 -9 45 -9 84 1 40 -3 73 -8 73 -5 0 -3 7 4 15 9 10 9 15 1
15 -7 0 -9 15 -6 43 2 23 7 80 10 127 3 47 8 91 10 97 2 7 1 13 -4 13 -5 0 -3
17 5 38 7 20 13 57 14 82 0 25 7 77 14 115 8 39 12 74 9 78 -3 4 0 13 5 20 5
7 20 58 33 114 13 57 27 99 33 96 5 -4 7 1 3 10 -3 10 -3 17 1 17 4 0 16 27
26 61 11 33 23 62 28 65 4 3 8 16 8 30 0 31 30 90 65 127 l26 27 -53 2 c-29 0
-60 0 -68 0 -20 -2 -55 -10 -55 -12 0 -1 -23 -4 -51 -5 -30 -2 -72 -14 -102
-29 -35 -18 -67 -26 -101 -26 -50 0 -74 13 -46 24 20 7 19 51 -2 78 -48 60
-92 98 -114 97 -29 -1 -84 -31 -85 -47 -1 -7 -3 -15 -4 -19 -7 -20 -4 -49 7
-61 7 -7 9 -20 6 -29 -4 -11 -3 -14 5 -9 7 4 12 2 12 -4 0 -6 10 -15 23 -20
21 -9 21 -9 1 -9 -19 -1 -32 7 -98 59 -46 37 -73 72 -97 126 -12 26 -17 53
-14 66 5 12 3 18 -3 14 -13 -8 -7 75 7 100 6 11 20 45 31 76 48 133 222 377
258 363 7 -2 11 -1 8 4 -6 9 38 51 54 51 18 0 95 58 125 94 17 20 57 58 90 84
33 25 62 50 63 54 2 5 10 8 19 8 8 0 33 16 55 35 41 35 83 43 101 20 5 -6 7
-3 3 8 -6 19 4 23 21 6 8 -8 13 -7 18 2 5 7 4 10 -2 6 -5 -3 -17 3 -26 14 -17
19 -16 19 9 13 19 -5 25 -4 20 5 -4 6 -1 11 6 11 8 0 29 16 48 35 19 19 29 35
22 35 -7 0 -12 5 -12 11 0 6 7 9 15 6 8 -4 17 -2 20 4 4 5 12 6 18 2 7 -4 6 0
-2 10 -11 15 -11 17 2 17 26 0 25 23 -2 65 -44 67 -79 162 -102 274 -15 79 -7
300 16 405 9 44 14 91 12 105 -3 14 2 55 10 91 9 36 15 74 15 84 -1 11 3 27 8
37 6 9 12 52 15 96 3 43 8 88 11 101 2 13 7 51 10 85 3 34 9 66 13 72 5 5 11
26 15 46 5 27 2 40 -12 54 -18 19 -17 20 5 41 13 12 25 30 28 41 19 96 40 167
66 228 4 11 15 40 23 65 31 96 117 263 185 358 59 82 85 108 144 147 40 27 97
67 128 91 104 80 232 144 287 144 13 0 31 4 41 9 23 13 151 46 268 71 72 15
107 17 160 11 45 -5 97 -4 153 4 47 7 134 14 195 14 60 1 111 4 114 7 2 2 79
3 170 1 l166 -4 125 -45z m1640 -1442 c0 -3 -4 -8 -10 -11 -5 -3 -10 -1 -10 4
0 6 5 11 10 11 6 0 10 -2 10 -4z m215 -55 c3 -5 1 -12 -5 -16 -5 -3 -10 1 -10
9 0 18 6 21 15 7z m151 -20 c0 -11 -5 -17 -13 -14 -14 6 -17 16 -6 26 11 12
19 7 19 -12z m-922 -483 c-9 -15 -22 -8 -27 14 -9 32 4 44 19 17 7 -13 10 -27
8 -31z m-3427 -769 c-9 -6 -16 -13 -13 -17 2 -4 -9 -7 -25 -8 l-30 -1 28 18
c15 10 35 18 43 18 11 0 11 -2 -3 -10z m-100 -72 c0 -7 -9 -13 -19 -13 -18 0
-18 1 -2 13 10 7 18 13 19 13 1 0 2 -6 2 -13z m3994 -84 c13 -16 12 -17 -3 -4
-17 13 -22 21 -14 21 2 0 10 -8 17 -17z m192 -133 c3 -11 1 -18 -4 -14 -5 3
-9 12 -9 20 0 20 7 17 13 -6z m-4543 -59 c0 -5 -7 -12 -16 -15 -14 -5 -15 -4
-4 9 14 17 20 19 20 6z m4938 -303 c-2 -7 -9 -19 -16 -26 -7 -8 -10 -22 -7
-32 3 -10 1 -21 -5 -25 -5 -3 -10 -12 -10 -18 0 -7 12 3 26 21 20 26 29 30 35
20 13 -20 11 -66 -3 -71 -10 -4 -10 -8 1 -15 12 -9 12 -13 2 -26 -11 -13 -11
-16 2 -16 8 0 20 15 27 33 9 27 13 29 20 16 11 -19 -7 -82 -20 -74 -5 3 -12 0
-16 -6 -4 -8 -3 -9 4 -5 7 4 12 2 12 -5 0 -8 4 -8 15 1 14 12 20 6 15 -15 -2
-10 -6 -36 -9 -62 0 -7 -8 -10 -18 -6 -13 5 -15 2 -11 -15 8 -29 -3 -28 -32 3
-13 14 -18 25 -11 25 9 0 9 5 1 20 -9 17 -8 20 10 20 29 0 22 30 -10 43 -9 3
-6 6 10 6 l24 1 -22 16 c-12 8 -20 19 -17 25 4 5 -3 5 -17 0 -28 -10 -68 -76
-68 -113 0 -15 -5 -30 -11 -34 -17 -10 -3 71 20 114 11 20 25 68 31 105 11 66
27 107 42 107 5 0 7 -6 6 -12z m-3 -48 c3 -5 1 -10 -4 -10 -6 0 -11 5 -11 10
0 6 2 10 4 10 3 0 8 -4 11 -10z m-855 -50 c0 -5 -4 -10 -10 -10 -5 0 -10 5
-10 10 0 6 5 10 10 10 6 0 10 -4 10 -10z m1008 4 c12 -4 22 -13 22 -20 0 -8 4
-14 9 -14 18 0 41 12 41 22 0 5 -4 6 -10 3 -5 -3 -10 -1 -10 4 0 17 27 13 34
-5 11 -28 7 -44 -9 -38 -18 7 -20 -7 -2 -25 10 -11 10 -13 0 -7 -7 4 -13 3
-13 -3 0 -5 -11 -22 -24 -36 -24 -26 -25 -26 -35 -6 -15 27 -14 30 9 24 12 -3
20 0 20 6 0 7 -4 10 -9 7 -16 -10 -58 12 -64 33 -3 12 -1 23 4 26 4 3 6 12 2
20 -6 16 0 18 35 9z m-1008 -44 c0 -5 -2 -10 -4 -10 -3 0 -8 5 -11 10 -3 6 -1
10 4 10 6 0 11 -4 11 -10z m-30 -20 c0 -5 -5 -10 -11 -10 -5 0 -7 5 -4 10 3 6
8 10 11 10 2 0 4 -4 4 -10z m5 -40 c3 -5 1 -10 -4 -10 -6 0 -11 5 -11 10 0 6
2 10 4 10 3 0 8 -4 11 -10z m1130 1 c-3 -5 -1 -12 5 -16 5 -3 10 -14 9 -23 0
-11 -3 -12 -6 -4 -7 18 -21 15 -28 -8 -3 -11 -10 -20 -14 -20 -4 0 -7 9 -8 20
-1 11 3 20 8 20 6 0 7 5 3 11 -3 6 0 15 7 20 18 12 32 11 24 0z m-1122 -47
c-4 -11 -9 -12 -19 -3 -18 15 -18 14 5 16 14 1 18 -3 14 -13z m1135 -39 c-3
-3 -9 2 -12 12 -6 14 -5 15 5 6 7 -7 10 -15 7 -18z m-1141 -17 c-3 -8 -6 -5
-6 6 -1 11 2 17 5 13 3 -3 4 -12 1 -19z m1149 -13 c-8 -8 -17 -15 -20 -15 -3
0 -3 7 0 15 4 8 13 15 21 15 12 0 12 -2 -1 -15z m-243 -39 c9 -7 17 -16 17
-20 0 -3 -8 -6 -17 -6 -16 -1 -16 -2 1 -15 11 -8 14 -15 7 -15 -6 0 -22 -12
-35 -27 -17 -20 -25 -23 -31 -13 -5 9 -4 11 3 6 12 -7 16 4 13 36 -1 9 3 19 9
23 5 3 10 12 10 18 0 7 -5 4 -11 -5 -11 -20 -29 -24 -29 -7 0 11 29 38 40 38
3 0 13 -6 23 -13z m264 8 c-3 -3 -12 -4 -19 -1 -8 3 -5 6 6 6 11 1 17 -2 13
-5z m-105 -36 c-6 -23 -15 -23 -36 1 -16 18 -16 19 12 18 22 -1 28 -6 24 -19z
m24 -24 c-4 -9 -9 -15 -11 -12 -3 3 -3 13 1 22 4 9 9 15 11 12 3 -3 3 -13 -1
-22z m-125 -47 c-6 -6 -14 -8 -18 -4 -4 4 -1 13 5 19 7 7 13 21 13 33 1 12 4
9 6 -9 3 -16 0 -33 -6 -39z m-201 33 c0 -4 -9 -6 -21 -3 -15 4 -17 8 -8 14 14
8 29 3 29 -11z m280 11 c0 -17 -18 -21 -24 -6 -3 9 0 15 9 15 8 0 15 -4 15 -9z
m-1006 -33 c-3 -5 -12 -4 -20 3 -19 16 -18 18 6 12 11 -3 17 -9 14 -15z m1010
-14 c9 -24 7 -27 -9 -10 -17 17 -19 26 -6 26 5 0 12 -7 15 -16z m86 1 c-7 -8
-18 -15 -24 -15 -6 0 -2 7 8 15 25 19 32 19 16 0z m100 -16 c0 -6 -4 -7 -10
-4 -5 3 -10 11 -10 16 0 6 5 7 10 4 6 -3 10 -11 10 -16z m-1196 -4 c-4 -8 -11
-12 -16 -9 -6 4 -5 10 3 15 19 12 19 11 13 -6z m640 -29 c-21 -15 -30 -14 -19
3 3 6 14 11 23 11 13 0 13 -2 -4 -14z m556 -47 c0 -37 -4 -58 -10 -54 -5 3
-10 2 -10 -4 0 -5 5 -11 12 -13 8 -3 8 -12 0 -33 -6 -18 -11 -23 -11 -12 -1 9
-5 17 -10 17 -12 0 -5 48 10 66 6 8 9 18 5 21 -4 4 -11 1 -16 -7 -6 -8 -10
-10 -10 -4 0 6 7 17 15 24 9 7 13 20 10 28 -5 13 1 32 11 32 2 0 4 -27 4 -61z
m-1220 41 c0 -5 -7 -10 -16 -10 -8 0 -12 5 -9 10 3 6 10 10 16 10 5 0 9 -4 9
-10z m1165 0 c3 -5 1 -10 -4 -10 -6 0 -11 5 -11 10 0 6 2 10 4 10 3 0 8 -4 11
-10z m-1151 -47 c-3 -29 -14 -44 -14 -19 0 9 -7 19 -15 22 -23 9 -18 22 8 22
20 0 23 -5 21 -25z m709 16 c9 7 18 8 21 3 3 -6 -4 -12 -17 -16 -34 -9 -44 -7
-51 9 -4 12 -2 13 14 3 14 -9 22 -9 33 1z m259 -4 c15 0 20 -15 4 -15 -9 0
-14 -4 -11 -10 8 -12 -15 -13 -34 -1 -12 8 -12 12 -2 25 7 9 18 13 25 9 6 -4
14 -8 18 -8z m-327 -15 c3 -5 1 -10 -4 -10 -6 0 -11 5 -11 10 0 6 2 10 4 10 3
0 8 -4 11 -10z m474 -17 c6 -12 5 -22 -3 -29 -9 -8 -15 -5 -23 12 -16 35 8 50
26 17z m-1139 -19 c0 -8 -4 -12 -10 -9 -5 3 -10 10 -10 16 0 5 5 9 10 9 6 0
10 -7 10 -16z m960 -1 c0 -10 5 -11 19 -3 31 16 38 12 12 -7 -23 -16 -23 -17
-5 -23 12 -5 -1 -8 -32 -8 -28 -1 -61 -5 -73 -10 -21 -8 -21 -9 16 -36 l38
-28 -35 7 c-19 4 -49 13 -67 20 -17 8 -42 11 -55 9 l-23 -5 23 12 c12 7 22 16
22 21 0 4 16 8 36 8 19 0 33 3 31 8 -3 4 13 7 36 7 25 0 42 5 45 14 3 8 0 11
-7 7 -6 -4 -11 -1 -11 7 0 7 7 14 15 14 8 0 15 -6 15 -14z m122 9 c-7 -5 -10
-16 -6 -25 3 -10 1 -17 -6 -17 -6 0 -8 -4 -5 -10 3 -5 2 -10 -4 -10 -5 0 -9
12 -8 28 2 27 13 42 32 42 6 0 4 -4 -3 -8z m-1042 -16 c0 -3 -4 -8 -10 -11 -5
-3 -10 -1 -10 4 0 6 5 11 10 11 6 0 10 -2 10 -4z m747 -2 c-3 -3 -12 -4 -19
-1 -8 3 -5 6 6 6 11 1 17 -2 13 -5z m-147 -14 c0 -5 -4 -10 -10 -10 -5 0 -10
5 -10 10 0 6 5 10 10 10 6 0 10 -4 10 -10z m-645 -10 c3 -5 1 -10 -4 -10 -6 0
-11 5 -11 10 0 6 2 10 4 10 3 0 8 -4 11 -10z m350 0 c-3 -5 -16 -10 -28 -9
-21 0 -21 1 -2 9 28 12 37 12 30 0z m339 -5 c-22 -17 -34 -19 -34 -6 0 5 8 12
18 14 32 9 36 7 16 -8z m101 -5 c3 -5 -3 -10 -14 -10 -12 0 -21 5 -21 10 0 6
6 10 14 10 8 0 18 -4 21 -10z m-168 -6 c-3 -3 -12 -4 -19 -1 -8 3 -5 6 6 6 11
1 17 -2 13 -5z m-502 -28 c21 -20 23 -25 11 -36 -8 -6 -21 -13 -28 -14 -32 -6
-58 -18 -53 -26 3 -5 1 -11 -4 -14 -12 -8 -41 3 -41 15 0 4 7 6 15 3 11 -5 13
-2 9 10 -3 9 -13 16 -22 16 -12 0 -13 3 -4 12 16 16 15 31 0 22 -7 -4 -9 -3
-5 2 4 4 18 9 30 9 12 0 21 6 20 13 -5 21 45 13 72 -12z m405 14 c0 -5 -5 -10
-11 -10 -5 0 -7 5 -4 10 3 6 8 10 11 10 2 0 4 -4 4 -10z m-630 -10 c0 -5 -4
-10 -10 -10 -5 0 -10 5 -10 10 0 6 5 10 10 10 6 0 10 -4 10 -10z m564 -5 c-10
-8 -23 -15 -28 -15 -6 0 -1 7 10 15 10 8 23 15 28 15 6 0 1 -7 -10 -15z m-109
-19 l26 -14 -25 -4 c-17 -4 -23 -1 -19 9 3 7 -2 13 -11 13 -9 0 -16 -6 -16
-14 0 -10 -7 -12 -22 -8 -14 3 -19 2 -14 -6 5 -8 0 -12 -13 -12 -24 0 -86 -36
-74 -42 11 -7 138 -1 258 11 55 5 103 10 107 11 3 0 19 11 35 24 15 13 44 27
63 30 19 4 43 10 53 12 15 5 17 -3 17 -65 0 -39 4 -79 9 -89 6 -9 24 -48 41
-87 25 -54 30 -73 21 -87 -8 -13 -7 -21 4 -31 8 -8 11 -17 8 -21 -3 -3 0 -12
7 -21 10 -13 9 -15 -9 -15 -22 0 -30 -29 -8 -31 9 0 9 -2 0 -6 -9 -3 -11 -19
-7 -52 4 -37 2 -52 -11 -64 -9 -9 -14 -20 -12 -24 3 -5 -2 -15 -11 -23 -14
-13 -15 -12 -9 4 6 16 5 17 -8 6 -17 -14 -11 -30 12 -30 22 0 14 -6 -20 -14
-21 -5 -27 -4 -21 5 4 8 3 9 -4 5 -6 -4 -9 -13 -5 -21 3 -9 -1 -15 -10 -15 -8
0 -21 -13 -28 -29 -14 -32 -44 -32 -54 0 -3 10 -15 21 -25 24 -24 8 -82 -25
-76 -42 3 -7 -1 -13 -8 -13 -16 0 -50 -66 -41 -79 3 -5 1 -12 -5 -16 -5 -3
-10 -1 -10 5 0 7 -6 10 -13 7 -17 -6 -15 62 2 73 10 5 10 9 2 14 -6 4 -9 12
-5 17 3 5 10 6 16 3 6 -4 8 -2 4 4 -3 6 2 15 11 21 16 9 16 12 3 20 -12 8 -12
13 -2 23 14 14 16 86 2 122 -5 14 -21 33 -35 42 -24 15 -28 15 -68 0 -23 -9
-50 -16 -59 -16 -19 0 -43 -27 -43 -49 0 -8 -7 -17 -15 -18 -14 -3 -90 112
-90 136 0 6 -4 11 -10 11 -5 0 -10 6 -10 14 0 8 -6 16 -14 19 -19 7 -30 68
-14 79 9 5 8 8 -4 8 -10 0 -18 5 -18 11 0 5 -4 8 -9 5 -15 -10 -7 28 9 41 20
17 30 16 30 -3 0 -8 -4 -12 -10 -9 -5 3 -10 1 -10 -4 0 -6 4 -11 9 -11 5 0 13
-10 17 -22 6 -19 7 -19 16 -5 11 21 25 21 44 2 14 -13 14 -17 0 -30 -8 -8 -20
-15 -27 -15 -10 0 -10 -3 -1 -12 15 -15 86 38 78 59 -3 8 -6 22 -7 31 0 11 -2
12 -6 5 -2 -7 -12 -13 -21 -13 -12 0 -10 5 8 25 25 26 14 33 -23 14 -13 -7 -8
1 13 21 31 28 32 31 11 25 -20 -6 -23 -5 -17 11 4 10 1 21 -6 26 -10 6 -10 10
2 18 8 5 11 10 5 10 -11 0 -35 46 -35 65 0 14 45 39 57 33 4 -3 31 2 58 11 28
10 53 16 58 14 4 -3 18 -10 32 -17z m655 3 c0 -5 -11 -9 -25 -9 -33 0 -33 15
0 16 14 1 25 -2 25 -7z m120 -8 c0 -5 -7 -14 -15 -21 -16 -14 -18 -10 -9 14 6
17 24 22 24 7z m-108 -30 c-1 -7 2 -10 8 -6 6 4 18 1 27 -7 15 -11 16 -11 10
5 -8 21 0 22 19 2 9 -8 11 -15 5 -15 -6 0 -11 -4 -11 -10 0 -5 7 -10 15 -10 8
0 15 -4 15 -10 0 -5 5 -10 11 -10 6 0 8 7 5 16 -3 8 -2 12 3 9 6 -3 14 2 19
11 13 23 60 27 71 6 14 -27 10 -150 -6 -163 -9 -9 -13 -8 -13 0 0 16 -29 14
-46 -4 -8 -8 -22 -11 -32 -8 -26 9 -71 64 -77 95 -4 14 -13 32 -20 38 -11 9
-45 66 -45 75 0 1 10 1 23 0 12 -2 21 -8 19 -14z m-1122 -61 c0 -5 -5 -10 -11
-10 -5 0 -7 5 -4 10 3 6 8 10 11 10 2 0 4 -4 4 -10z m204 -5 c-4 -9 0 -15 10
-15 9 0 16 -4 16 -10 0 -5 -4 -10 -9 -10 -14 0 -33 28 -26 40 9 15 15 12 9 -5z
m-37 -29 c-18 -14 -18 -15 0 -25 16 -9 16 -12 3 -21 -17 -11 -37 -14 -27 -3 4
3 2 12 -4 20 -14 16 5 43 30 43 14 -1 14 -2 -2 -14z m48 -22 c14 -11 16 -18 8
-21 -7 -3 -13 -11 -13 -19 0 -9 4 -13 9 -9 5 3 12 1 15 -4 10 -16 -11 -22 -24
-6 -9 11 -16 12 -31 2 -14 -9 -21 -9 -31 2 -11 11 -10 13 3 9 8 -4 25 5 38 18
18 19 20 24 7 24 -9 0 -16 5 -16 10 0 14 12 12 35 -6z m-155 -64 c0 -5 -2 -10
-4 -10 -3 0 -8 5 -11 10 -3 6 -1 10 4 10 6 0 11 -4 11 -10z m185 -29 c-3 -6
-11 -11 -17 -11 -6 0 -6 6 2 15 14 17 26 13 15 -4z m-4068 -453 c-3 -8 -6 -5
-6 6 -1 11 2 17 5 13 3 -3 4 -12 1 -19z m2673 -1259 c0 -6 -4 -7 -10 -4 -5 3
-10 11 -10 16 0 6 5 7 10 4 6 -3 10 -11 10 -16z m1171 -16 c-6 -11 -11 -13
-11 -5 0 7 -4 10 -10 7 -5 -3 -10 -1 -10 5 0 7 7 10 15 6 10 -3 15 1 16 12 0
10 3 12 5 5 3 -7 1 -20 -5 -30z m-1201 -43 c0 -5 -2 -10 -4 -10 -3 0 -8 5 -11
10 -3 6 -1 10 4 10 6 0 11 -4 11 -10z m-10 -30 c0 -5 -2 -10 -4 -10 -3 0 -8 5
-11 10 -3 6 -1 10 4 10 6 0 11 -4 11 -10z m-116 -24 c-10 -8 -21 -12 -24 -10
-5 6 21 24 34 24 6 0 1 -6 -10 -14z m1286 -1 c-7 -9 -15 -13 -19 -10 -3 3 1
10 9 15 21 14 24 12 10 -5z m0 -45 c0 -5 -4 -10 -8 -10 -5 0 -7 -13 -4 -29 3
-22 -1 -29 -17 -34 -25 -6 -30 18 -6 27 9 3 15 11 14 18 -3 24 1 38 11 38 6 0
10 -4 10 -10z m-20 -106 c0 -8 -4 -13 -9 -10 -5 3 -8 -6 -8 -20 0 -36 -17 -49
-37 -28 -9 9 -14 19 -11 22 3 4 10 0 14 -7 6 -9 11 -10 15 -2 4 6 2 11 -3 11
-15 0 -14 18 2 35 16 19 37 19 37 -1z m-1396 -65 c-18 -21 -49 -25 -59 -9 -4
6 5 10 20 10 14 0 24 4 21 9 -4 5 0 11 6 14 23 8 30 -5 12 -24z m1347 -16 c8
-52 7 -62 -7 -56 -17 6 -18 19 -4 28 8 5 7 11 -1 21 -8 10 -8 14 0 14 6 0 12
-3 12 -7z m-1471 -15 c0 -6 3 -8 7 -5 3 4 15 -1 25 -10 13 -11 22 -14 26 -6 8
12 52 28 52 18 0 -27 -23 -44 -55 -41 -19 1 -36 -2 -37 -6 -4 -11 -68 20 -68
33 0 5 5 9 10 9 6 0 10 -4 10 -9 0 -5 9 -11 20 -14 23 -6 27 11 5 19 -17 7
-20 24 -5 24 6 0 10 -5 10 -12z m-60 -34 c0 -8 -5 -12 -10 -9 -6 4 -8 11 -5
16 9 14 15 11 15 -7z m-80 -24 c0 -5 -4 -10 -10 -10 -5 0 -10 5 -10 10 0 6 5
10 10 10 6 0 10 -4 10 -10z m1610 -10 c0 -5 -4 -10 -10 -10 -5 0 -10 5 -10 10
0 6 5 10 10 10 6 0 10 -4 10 -10z m-1280 -20 c0 -5 -4 -10 -10 -10 -5 0 -10 5
-10 10 0 6 5 10 10 10 6 0 10 -4 10 -10z m-1239 -63 c-10 -9 -11 -8 -5 6 3 10
9 15 12 12 3 -3 0 -11 -7 -18z m86 -19 c-3 -7 -5 -2 -5 12 0 14 2 19 5 13 2
-7 2 -19 0 -25z m63 12 c0 -5 -4 -10 -10 -10 -5 0 -10 5 -10 10 0 6 5 10 10
10 6 0 10 -4 10 -10z m850 -1 c0 -7 10 -9 24 -5 14 3 28 2 31 -4 4 -6 -1 -7
-11 -3 -12 4 -15 3 -10 -5 10 -16 -26 -16 -42 0 -15 15 -16 28 -2 28 6 0 10
-5 10 -11z m-147 -6 c-7 -2 -19 -2 -25 0 -7 3 -2 5 12 5 14 0 19 -2 13 -5z
m37 -14 c0 -6 -4 -7 -10 -4 -5 3 -10 11 -10 16 0 6 5 7 10 4 6 -3 10 -11 10
-16z m40 17 c0 -2 -7 -7 -16 -10 -8 -3 -12 -2 -9 4 6 10 25 14 25 6z m-885
-36 c3 -5 1 -10 -4 -10 -6 0 -11 5 -11 10 0 6 2 10 4 10 3 0 8 -4 11 -10z
m940 -10 c-6 -10 7 -13 64 -14 19 -1 36 -7 38 -13 5 -14 -44 -18 -82 -7 -28 7
-52 44 -29 44 8 0 12 -4 9 -10z m-905 -14 c0 -3 -4 -8 -10 -11 -5 -3 -10 -1
-10 4 0 6 5 11 10 11 6 0 10 -2 10 -4z m57 -12 c-3 -3 -12 -4 -19 -1 -8 3 -5
6 6 6 11 1 17 -2 13 -5z m2383 -36 c0 -4 -9 -12 -20 -18 -12 -6 -20 -7 -20 -1
0 5 6 12 13 15 10 5 10 7 0 12 -7 3 -13 10 -13 15 0 5 9 4 20 -3 11 -7 20 -16
20 -20z m-10 -59 c0 -11 -4 -18 -10 -14 -5 3 -7 12 -3 20 7 21 13 19 13 -6z
m0 -39 c0 -5 -7 -10 -15 -10 -8 0 -15 5 -15 10 0 6 7 10 15 10 8 0 15 -4 15
-10z m-1350 -43 c0 -5 -7 -4 -15 3 -8 7 -15 20 -15 29 1 13 3 13 15 -3 8 -11
15 -24 15 -29z m-700 23 c0 -5 -5 -10 -11 -10 -5 0 -7 5 -4 10 3 6 8 10 11 10
2 0 4 -4 4 -10z m56 -10 c0 -13 -6 -18 -21 -17 -11 1 -19 -3 -17 -10 1 -7 -5
-13 -13 -13 -21 0 -19 9 11 36 31 29 40 30 40 4z m-76 -50 c0 -5 -7 -10 -16
-10 -8 0 -12 5 -9 10 3 6 10 10 16 10 5 0 9 -4 9 -10z m-142 -37 c1 -20 -1
-24 -7 -14 -5 8 -14 10 -22 6 -8 -5 -5 1 5 13 11 12 20 22 20 22 1 0 3 -12 4
-27z m37 -3 c-3 -5 -11 -10 -16 -10 -6 0 -7 5 -4 10 3 6 11 10 16 10 6 0 7 -4
4 -10z m1878 -48 c-10 -2 -25 -6 -33 -9 -24 -9 -76 -6 -96 5 -17 10 -16 11 9
12 16 0 26 3 24 8 -3 4 6 8 19 8 15 1 21 -2 17 -10 -4 -6 2 -4 13 4 29 22 30
24 12 17 -18 -6 -24 3 -11 16 4 4 20 -5 36 -20 25 -24 26 -28 10 -31z m-538
19 c-3 -5 -1 -12 5 -16 5 -3 10 -1 10 6 0 7 9 3 20 -9 12 -12 27 -22 34 -22
16 0 28 -37 15 -46 -5 -3 -9 2 -9 10 0 8 -4 17 -10 21 -13 8 -60 -5 -60 -17 0
-6 7 -8 15 -4 8 3 15 1 15 -3 0 -15 -33 -22 -41 -9 -6 9 -10 8 -15 -5 -8 -21
-33 -22 -40 -2 -4 8 -10 12 -15 9 -5 -3 -7 -10 -4 -15 4 -5 -1 -9 -10 -9 -8 0
-18 7 -22 16 -6 15 -7 15 -18 1 -9 -13 -59 -23 -90 -17 -23 4 95 31 148 34 32
2 61 7 65 11 4 4 -6 5 -21 1 -21 -5 -27 -4 -21 5 4 8 3 9 -4 5 -7 -4 -12 -5
-12 -2 0 2 -3 13 -6 23 -5 15 -4 16 5 3 10 -13 13 -13 25 2 7 10 16 15 20 11
4 -4 4 0 0 10 -4 12 -1 17 11 17 9 0 14 -4 10 -9z m-90 -51 c3 -5 1 -10 -4
-10 -6 0 -11 5 -11 10 0 6 2 10 4 10 3 0 8 -4 11 -10z m155 -30 c0 -5 -2 -10
-4 -10 -3 0 -8 5 -11 10 -3 6 -1 10 4 10 6 0 11 -4 11 -10z m97 4 c-3 -3 -12
-4 -19 -1 -8 3 -5 6 6 6 11 1 17 -2 13 -5z m-397 -28 c0 -2 -7 -7 -16 -10 -8
-3 -12 -2 -9 4 6 10 25 14 25 6z m-28 -30 c25 -3 31 -12 11 -14 -56 -6 -83 0
-83 20 0 6 11 8 28 4 15 -4 35 -8 44 -10z"/>
<path d="M3605 6270 c-28 -7 -28 -8 12 -9 23 0 44 -5 48 -11 3 -5 12 -7 20 -3
8 3 15 0 15 -7 0 -7 7 -10 16 -6 21 8 101 -33 84 -44 -8 -5 -9 -9 -1 -14 6 -4
11 -3 11 3 0 5 9 9 19 8 16 -1 18 -5 9 -20 -9 -18 -8 -19 17 -13 25 6 26 6 11
-9 -9 -9 -16 -22 -16 -28 0 -7 4 -6 10 3 5 8 10 11 10 5 0 -5 4 -4 9 4 7 11
16 1 35 -37 14 -28 30 -54 36 -57 6 -4 8 -16 4 -27 -4 -14 -2 -18 5 -14 6 4
11 2 11 -3 0 -21 -22 -11 -58 26 -21 21 -41 36 -46 35 -5 -2 -6 8 -4 22 3 14
1 23 -3 20 -4 -2 -15 9 -24 26 -8 16 -27 33 -40 36 -14 3 -25 9 -25 13 0 11
-60 30 -76 24 -8 -3 -14 -1 -14 3 0 11 -71 12 -87 1 -16 -10 -56 11 -47 24 3
6 15 9 25 6 16 -4 17 -2 8 14 -5 10 -17 19 -27 19 -14 0 -15 -2 -2 -10 12 -7
7 -12 -20 -24 -26 -11 -37 -11 -42 -3 -5 8 -8 4 -8 -8 0 -11 -7 -31 -16 -44
-14 -19 -14 -25 -3 -33 11 -8 10 -9 -3 -4 -32 10 -104 -108 -93 -151 7 -30 28
-53 48 -53 8 0 17 -9 20 -20 6 -23 11 -23 197 -21 87 1 135 6 157 17 25 11 38
12 53 4 23 -12 54 0 69 28 10 18 51 28 51 11 0 -5 7 -9 15 -9 8 0 15 5 15 10
0 6 5 10 10 10 6 0 10 -7 10 -15 0 -9 6 -12 15 -9 8 4 15 10 15 16 0 5 -5 6
-12 2 -7 -5 -8 -3 -4 5 5 7 -6 42 -23 79 -50 105 -55 115 -66 115 -5 1 -18 10
-27 22 -22 29 -107 70 -183 89 -64 17 -74 18 -120 6z m-56 -72 c17 -10 17 -13
2 -30 -8 -10 -20 -18 -25 -18 -5 0 -15 -8 -22 -17 -13 -17 -13 -17 -14 0 0 9
-5 17 -12 17 -6 0 1 14 17 30 33 35 30 33 54 18z m-104 -121 c-7 -18 -16 -40
-19 -51 -5 -15 -9 -16 -22 -5 -14 12 -14 14 0 25 9 6 16 14 16 17 0 19 22 57
30 52 6 -3 4 -18 -5 -38z m188 -19 c15 -23 1 -48 -28 -48 -14 0 -25 2 -25 4 0
2 -3 11 -6 19 -6 16 23 50 39 44 6 -2 15 -10 20 -19z m-218 -58 c3 -5 -1 -10
-9 -10 -8 0 -18 5 -21 10 -3 6 1 10 9 10 8 0 18 -4 21 -10z m-5 -46 c0 -8 -5
-12 -10 -9 -6 4 -8 11 -5 16 9 14 15 11 15 -7z"/>
<path d="M3524 6188 c5 -16 -4 -23 -26 -19 -5 0 -8 -4 -8 -10 0 -6 9 -8 23 -3
30 9 31 10 17 31 -10 16 -11 16 -6 1z"/>
<path d="M2154 6239 c-3 -5 -16 -9 -30 -9 -17 0 -23 -4 -18 -12 4 -7 3 -8 -5
-4 -7 5 -26 -3 -45 -18 -19 -14 -37 -22 -41 -18 -3 4 -5 3 -3 -3 1 -5 -5 -21
-15 -35 -9 -13 -17 -19 -17 -12 0 6 -4 12 -10 12 -5 0 -10 -7 -10 -15 0 -8 5
-15 10 -15 6 0 10 -7 10 -15 0 -8 -4 -15 -10 -15 -5 0 -10 7 -10 15 0 24 -27
17 -47 -12 -40 -60 -44 -76 -35 -137 5 -32 7 -67 5 -76 -3 -10 0 -21 6 -24 6
-4 11 0 11 8 0 20 19 21 26 1 4 -10 14 -13 30 -9 14 4 24 2 24 -5 0 -7 33 -9
103 -5 56 3 114 5 129 5 17 -1 28 5 31 16 4 15 5 15 6 2 1 -18 43 -30 62 -19
8 6 6 9 -7 13 -16 4 -16 5 4 6 17 1 22 7 22 26 0 14 5 25 11 25 6 0 9 -7 5
-15 -3 -8 -1 -15 5 -15 6 0 8 -7 5 -16 -4 -9 -2 -13 5 -8 6 4 15 0 20 -7 6
-10 9 -5 9 16 0 17 5 37 11 45 8 12 9 10 4 -7 -8 -29 15 -31 39 -4 15 17 15
21 -3 65 -11 25 -18 53 -15 61 4 9 0 15 -10 15 -8 0 -13 6 -11 13 3 7 -17 36
-45 66 -27 29 -50 58 -50 64 0 6 -3 8 -6 4 -3 -3 -16 4 -28 17 -20 22 -72 43
-60 25 3 -5 0 -9 -5 -9 -6 0 -11 4 -11 9 0 12 -39 21 -46 10z m-180 -202 c-7
-19 -34 -24 -34 -6 0 5 5 7 10 4 6 -3 10 1 10 9 0 9 -4 16 -10 16 -5 0 -10 8
-10 17 0 15 2 15 20 -3 13 -12 18 -27 14 -37z m66 -42 c0 -8 -7 -15 -15 -15
-16 0 -20 12 -8 23 11 12 23 8 23 -8z"/>
<path d="M3505 6240 c-3 -5 -2 -10 4 -10 5 0 13 5 16 10 3 6 2 10 -4 10 -5 0
-13 -4 -16 -10z"/>
<path d="M3608 6243 c7 -3 16 -2 19 1 4 3 -2 6 -13 5 -11 0 -14 -3 -6 -6z"/>
<path d="M1485 6190 c4 -6 11 -8 16 -5 14 9 11 15 -7 15 -8 0 -12 -5 -9 -10z"/>
<path d="M1980 6149 c0 -5 5 -7 10 -4 6 3 10 8 10 11 0 2 -4 4 -10 4 -5 0 -10
-5 -10 -11z"/>
<path d="M3396 6118 l-17 -33 20 24 c18 20 27 41 18 41 -1 0 -11 -15 -21 -32z"/>
<path d="M3900 6073 c0 -4 5 -15 10 -23 8 -13 10 -13 10 2 0 9 -4 20 -10 23
-5 3 -10 3 -10 -2z"/>
<path d="M3357 6051 c-4 -17 -3 -21 5 -13 5 5 8 16 6 23 -3 8 -7 3 -11 -10z"/>
<path d="M2291 4894 c0 -11 3 -14 6 -6 3 7 2 16 -1 19 -3 4 -6 -2 -5 -13z"/>
<path d="M4985 4620 c19 -19 31 -26 34 -19 2 7 -6 21 -19 31 -36 29 -46 21
-15 -12z"/>
<path d="M1542 4606 c4 -17 1 -23 -8 -19 -8 3 -17 -3 -20 -13 -4 -11 -16 -30
-28 -44 -13 -14 -14 -19 -4 -12 14 11 21 10 42 -3 14 -10 26 -21 26 -26 0 -12
-13 -11 -25 0 -13 12 -40 -8 -40 -29 0 -10 -10 -15 -31 -14 -27 1 -31 -1 -26
-18 2 -11 8 -16 11 -10 3 5 24 12 46 15 22 4 41 11 43 17 5 15 21 12 39 -6 10
-10 25 -13 39 -10 17 5 24 2 24 -8 0 -10 6 -13 16 -9 12 4 15 2 12 -8 -5 -13
-35 -16 -82 -7 -10 1 -21 -4 -24 -12 -4 -13 -3 -13 10 -2 11 9 18 10 23 2 3
-5 1 -10 -4 -10 -6 0 -11 -4 -11 -10 0 -6 10 -6 27 1 19 7 28 6 33 -1 5 -8 9
-7 13 4 4 9 16 16 27 16 11 0 20 5 20 11 0 5 5 7 10 4 6 -4 1 -15 -12 -26
l-23 -20 27 4 c24 4 26 2 17 -14 -8 -16 -6 -18 22 -14 29 4 30 3 15 -14 -9
-10 -16 -22 -16 -27 0 -5 5 -2 10 6 9 13 14 11 35 -12 28 -33 32 -33 59 -10
l21 17 -20 -25 c-11 -14 -20 -26 -21 -28 0 -1 -15 5 -33 14 -40 20 -47 14 -26
-25 16 -32 29 -39 40 -20 8 11 45 -22 45 -41 0 -12 10 -13 30 0 12 7 12 12 2
22 -6 6 -12 17 -12 22 1 6 10 0 20 -13 15 -17 20 -19 20 -8 0 9 -4 18 -9 22
-30 18 31 114 64 101 31 -11 14 12 -17 25 -18 7 -36 17 -40 23 -4 6 -12 5 -22
-4 -22 -18 -31 -6 -11 14 13 13 14 16 2 16 -8 0 -22 9 -32 20 -12 13 -25 18
-38 14 -16 -5 -19 -3 -13 11 5 14 2 16 -13 12 -11 -3 -25 1 -32 9 -13 16 -33
19 -24 4 16 -25 -27 6 -51 37 -21 27 -29 32 -36 22 -7 -11 -8 -9 -4 4 6 20
-17 63 -48 89 -29 24 -39 22 -34 -6z m23 -76 c7 0 15 6 18 13 4 10 7 10 18 0
11 -11 10 -13 -4 -13 -9 0 -17 -4 -17 -10 0 -5 -7 -10 -15 -10 -8 0 -15 5 -15
10 0 6 -8 10 -17 10 -15 0 -16 2 -3 10 10 6 16 6 18 0 2 -6 10 -10 17 -10z
m285 -150 c0 -5 -5 -10 -11 -10 -5 0 -7 5 -4 10 3 6 8 10 11 10 2 0 4 -4 4
-10z m-13 -60 c32 -25 19 -25 -27 0 -24 13 -29 19 -17 20 11 0 30 -9 44 -20z
m33 -70 c0 -5 -2 -10 -4 -10 -3 0 -8 5 -11 10 -3 6 -1 10 4 10 6 0 11 -4 11
-10z m-30 -30 c0 -5 -4 -10 -10 -10 -5 0 -10 5 -10 10 0 6 5 10 10 10 6 0 10
-4 10 -10z"/>
<path d="M5065 4560 c10 -11 20 -18 23 -15 7 6 -18 35 -31 35 -5 0 -2 -9 8
-20z"/>
<path d="M1255 4471 c3 -6 -3 -14 -12 -20 -10 -6 -13 -11 -7 -11 12 0 34 20
34 32 0 4 -5 8 -11 8 -5 0 -8 -4 -4 -9z"/>
<path d="M1412 4401 c7 -11 21 -24 33 -30 18 -9 18 -10 2 -10 -11 -1 -32 8
-47 19 l-28 20 -14 -30 c-7 -17 -20 -33 -30 -36 -9 -2 -21 -10 -26 -17 -8 -9
-4 -12 14 -13 15 -1 35 9 52 27 27 29 52 38 52 18 0 -7 11 -8 30 -4 20 4 30 3
30 -5 0 -6 5 -8 10 -5 8 5 7 11 -1 21 -7 8 -7 14 -1 14 5 0 15 -7 23 -16 10
-13 10 -17 -2 -25 -10 -6 -7 -9 14 -9 27 0 36 13 16 26 -8 4 -7 9 2 16 11 8
10 9 -3 4 -12 -3 -29 5 -48 24 -32 31 -52 41 -30 15 11 -13 9 -15 -11 -12 -12
2 -25 9 -27 15 -2 7 -8 12 -13 12 -5 0 -4 -9 3 -19z m-22 -30 c0 -5 -7 -11
-14 -14 -10 -4 -13 -1 -9 9 6 15 23 19 23 5z"/>
<path d="M1498 4403 c7 -3 16 -2 19 1 4 3 -2 6 -13 5 -11 0 -14 -3 -6 -6z"/>
<path d="M4140 4370 c0 -5 5 -10 11 -10 5 0 7 5 4 10 -3 6 -8 10 -11 10 -2 0
-4 -4 -4 -10z"/>
<path d="M1985 4350 c-3 -5 1 -10 10 -10 9 0 13 5 10 10 -3 6 -8 10 -10 10 -2
0 -7 -4 -10 -10z"/>
<path d="M4089 4350 c0 -3 -2 -13 -4 -22 -2 -10 1 -18 5 -18 15 0 19 15 9 30
-5 8 -9 13 -10 10z"/>
<path d="M1410 4315 c7 -8 20 -14 29 -14 13 1 13 2 -1 6 -10 2 -18 9 -18 14 0
5 -5 9 -11 9 -8 0 -8 -5 1 -15z"/>
<path d="M1666 4305 c-14 -11 -23 -12 -33 -4 -8 7 -13 8 -13 1 0 -13 24 -32
46 -37 11 -2 27 -6 37 -10 12 -5 17 -2 17 10 0 11 -5 15 -15 11 -14 -5 -19 5
-16 32 2 15 1 15 -23 -3z"/>
<path d="M4047 4309 c7 -7 15 -10 18 -7 3 3 -2 9 -12 12 -14 6 -15 5 -6 -5z"/>
<path d="M1541 4288 c9 -19 9 -21 -2 -10 -7 6 -17 12 -23 12 -5 0 10 -18 32
-41 46 -45 49 -49 27 -49 -8 0 -15 5 -15 11 0 6 -7 18 -16 27 -15 15 -17 15
-28 0 -7 -9 -25 -20 -42 -24 l-29 -6 35 27 c26 20 29 25 12 20 -14 -4 -24 -2
-27 7 -9 22 -57 14 -69 -11 -5 -12 -15 -20 -22 -17 -7 3 -16 -4 -19 -15 -4
-10 -11 -19 -16 -19 -5 0 -9 -9 -9 -20 0 -11 -7 -20 -15 -20 -8 0 -15 -5 -15
-10 0 -7 8 -6 23 2 24 13 56 18 55 9 0 -3 0 -14 1 -24 2 -30 21 -8 21 23 0 27
-2 29 -25 20 -16 -6 -25 -6 -25 0 0 6 5 10 11 10 6 0 8 7 5 17 -4 10 -4 14 0
11 3 -4 19 -1 35 7 36 19 39 19 39 -5 0 -11 -4 -20 -10 -20 -5 0 -9 -15 -9
-32 1 -18 3 -25 6 -15 2 9 12 17 21 18 14 0 13 2 -3 9 -14 6 -16 9 -5 10 8 2
18 2 22 1 4 0 18 3 31 8 18 7 26 5 34 -9 10 -14 6 -23 -20 -47 -18 -17 -39
-33 -47 -35 -9 -3 -10 -7 -3 -11 6 -4 27 8 46 25 18 18 42 38 53 45 17 11 17
12 2 12 -10 1 -18 6 -18 12 0 6 8 8 20 4 10 -3 28 -1 39 4 13 7 22 8 26 1 3
-5 16 -10 27 -10 12 0 19 -3 16 -6 -6 -5 27 -44 37 -44 13 0 43 -35 38 -43 -3
-6 -1 -7 5 -3 12 7 -2 43 -23 58 -7 5 -7 8 0 8 14 0 43 -20 30 -20 -5 0 -3 -6
6 -13 30 -23 42 -56 27 -74 -12 -15 -11 -15 9 -3 12 8 19 20 16 29 -4 13 -3
13 5 2 12 -16 35 -5 26 12 -5 9 -4 9 6 0 10 -9 7 -17 -14 -38 -14 -14 -26 -28
-26 -30 0 -11 20 -4 35 11 23 24 28 11 5 -13 -19 -21 -19 -21 15 -20 29 1 32
3 22 16 -10 12 -9 13 2 6 11 -6 13 -3 8 14 -4 19 -3 20 9 10 11 -9 18 -9 26
-1 9 9 9 12 0 12 -7 0 -12 7 -12 16 0 9 5 13 13 9 6 -4 3 2 -8 12 -11 10 -20
29 -20 42 0 30 -14 35 -40 15 -14 -11 -16 -18 -7 -21 21 -8 13 -21 -13 -19
-26 1 -57 47 -36 54 16 5 13 22 -4 22 -8 0 -15 -8 -15 -17 0 -14 -3 -14 -20 5
-11 12 -20 25 -20 29 0 22 -93 52 -104 34 -4 -6 -14 -7 -23 -4 -11 4 -14 3 -9
-5 4 -7 3 -12 -3 -12 -5 0 -14 6 -18 14 -4 7 -15 16 -23 20 -8 3 -2 4 14 0 26
-5 28 -3 17 10 -8 9 -19 16 -26 16 -7 0 -15 7 -19 15 -3 8 -10 15 -16 15 -7 0
-7 -7 1 -22z m169 -74 c0 -8 -5 -14 -11 -14 -5 0 -7 5 -4 10 3 6 -3 10 -14 10
-12 0 -21 4 -21 9 0 4 11 6 25 3 14 -2 25 -11 25 -18z m-10 -34 c0 -5 -5 -10
-11 -10 -5 0 -7 5 -4 10 3 6 8 10 11 10 2 0 4 -4 4 -10z m35 0 c3 -5 1 -10 -4
-10 -6 0 -11 5 -11 10 0 6 2 10 4 10 3 0 8 -4 11 -10z"/>
<path d="M1587 4294 c3 -7 9 -14 14 -14 14 0 10 17 -5 23 -10 4 -13 1 -9 -9z"/>
<path d="M4005 4300 c3 -5 11 -10 16 -10 6 0 7 5 4 10 -3 6 -11 10 -16 10 -6
0 -7 -4 -4 -10z"/>
<path d="M2016 4285 c13 -10 15 -14 5 -15 -9 0 -6 -8 10 -23 13 -13 28 -21 33
-19 5 3 6 0 2 -6 -8 -13 27 -52 47 -52 14 -1 66 -29 54 -30 -5 0 -17 5 -29 11
-30 16 -32 5 -5 -27 14 -16 26 -38 28 -48 2 -11 10 -21 18 -24 9 -3 11 0 5 9
-7 12 -5 12 9 0 19 -15 23 -26 6 -15 -6 3 -3 -5 6 -20 20 -30 23 -31 51 -12
13 10 25 11 35 5 8 -5 19 -9 24 -8 6 0 -1 6 -13 13 -22 12 -20 13 25 12 26 0
41 -2 33 -3 -9 -2 -21 -13 -28 -23 -11 -18 -9 -22 15 -31 23 -9 114 -29 130
-29 2 0 2 4 -1 9 -3 5 3 11 14 14 16 4 17 2 7 -14 -6 -10 -17 -19 -24 -19 -7
0 -13 -4 -13 -10 0 -9 46 -21 95 -24 14 0 25 -4 25 -8 0 -5 5 -8 11 -8 5 0 7
5 4 10 -3 6 -1 10 4 10 6 0 11 -4 11 -10 0 -5 7 -7 15 -4 8 4 12 10 9 15 -3 5
0 9 6 9 7 0 9 -8 5 -19 -5 -15 -1 -18 22 -14 22 4 25 2 13 -6 -27 -19 4 -12
38 9 42 26 54 25 22 0 l-25 -21 28 7 c17 4 27 2 27 -5 0 -6 -8 -11 -17 -11
-14 0 -15 -2 -4 -12 11 -10 14 -10 18 0 3 6 11 12 18 12 7 0 16 6 18 13 3 6 6
3 6 -7 1 -16 4 -17 13 -8 7 7 26 12 43 12 23 0 26 -3 15 -10 -19 -13 -8 -13
24 0 24 9 25 8 14 -10 -7 -10 -21 -23 -33 -29 -15 -7 -16 -10 -4 -10 8 -1 26
10 39 24 24 25 50 33 50 15 0 -5 31 -8 70 -7 38 1 70 6 70 10 0 5 9 5 20 2 11
-3 20 -2 20 3 0 6 9 8 20 5 11 -3 20 0 20 6 0 6 12 9 28 7 15 -2 21 -1 14 1
-8 3 -10 12 -7 24 8 23 -7 25 -25 4 -7 -8 -18 -15 -24 -15 -6 1 3 12 19 25 30
25 51 33 40 16 -10 -17 13 -22 29 -6 10 10 24 13 40 9 29 -7 69 3 61 16 -3 5
-1 11 5 15 5 3 10 2 10 -4 0 -6 18 -10 40 -8 22 1 40 6 40 11 0 5 7 3 15 -4
20 -17 19 -1 -2 22 -9 11 -11 18 -5 18 7 0 12 -5 12 -11 0 -5 4 -8 10 -4 5 3
18 0 28 -6 16 -10 25 -8 51 10 28 20 35 20 32 -1 0 -4 6 -5 15 -1 11 4 12 9 5
16 -18 18 17 49 40 36 13 -6 19 -6 19 1 0 5 -5 10 -11 10 -19 0 1 18 28 25 16
3 42 13 58 20 17 8 50 21 75 29 42 14 43 15 15 17 -17 1 -23 3 -12 6 9 2 17
13 17 24 0 11 4 18 9 15 11 -7 83 49 74 58 -3 3 2 6 13 6 19 1 54 22 54 34 0
3 -7 6 -15 6 -8 0 -15 -5 -15 -10 0 -6 -13 -9 -29 -8 -16 1 -40 -3 -53 -9 -26
-13 -125 -45 -148 -48 -8 -1 -23 -6 -34 -10 -12 -5 -21 -3 -27 6 -7 11 -9 10
-9 -4 0 -14 -5 -17 -20 -12 -11 3 -20 2 -20 -3 0 -11 -50 -35 -58 -28 -3 3 3
8 12 12 16 6 13 24 -5 24 -6 0 -7 -4 -4 -10 3 -5 -3 -10 -14 -10 -10 0 -21 -4
-23 -10 -1 -5 -18 -10 -35 -12 -18 -1 -33 -6 -33 -11 0 -5 10 -5 21 -2 14 5
19 3 15 -4 -4 -6 -25 -9 -46 -7 -22 2 -38 1 -36 -3 2 -3 -26 -7 -62 -9 -36 -1
-69 -7 -72 -13 -4 -5 -14 -7 -23 -3 -9 3 -21 3 -27 -1 -13 -8 -231 -8 -266 -1
-12 2 -78 8 -147 11 -92 6 -139 4 -173 -5 -37 -11 -47 -11 -54 0 -4 7 -13 9
-19 6 -6 -4 -11 -2 -11 5 0 7 -10 9 -25 7 -13 -3 -26 -1 -27 4 -2 6 -21 10
-43 11 -22 0 -43 5 -47 10 -3 6 -21 11 -40 12 -18 2 -46 8 -62 14 -16 6 -37 9
-47 6 -11 -4 -19 -2 -19 4 0 6 -7 11 -15 11 -9 0 -26 9 -37 20 -14 13 -29 18
-41 14 -14 -4 -17 -3 -12 6 5 9 2 10 -14 5 -12 -4 -21 -2 -21 4 0 6 -9 11 -21
11 -15 0 -19 5 -15 15 6 17 -9 21 -19 5 -4 -7 -14 -5 -28 5 -28 19 -47 20 -21
0z m1769 -95 c-3 -5 -11 -10 -16 -10 -6 0 -7 5 -4 10 3 6 11 10 16 10 6 0 7
-4 4 -10z m-1562 -65 c18 -5 26 -12 23 -21 -4 -11 -1 -12 13 -4 14 7 20 6 25
-5 3 -8 13 -15 23 -15 15 0 16 -2 3 -10 -13 -8 -12 -10 3 -10 9 0 17 -5 17
-10 0 -6 -10 -8 -24 -4 -13 3 -29 0 -37 -8 -23 -23 -49 -29 -49 -13 0 9 6 12
15 9 8 -4 15 -1 15 5 0 6 -4 11 -10 11 -5 0 -18 7 -27 15 -10 9 -33 28 -51 44
l-33 28 33 -2 c18 -2 46 -6 61 -10z m517 -23 c0 -4 -12 -9 -27 -10 -22 -1 -24
0 -13 8 18 12 40 13 40 2z m330 -42 c0 -5 -4 -10 -10 -10 -5 0 -10 5 -10 10 0
6 5 10 10 10 6 0 10 -4 10 -10z m60 0 c0 -5 -2 -10 -4 -10 -3 0 -8 5 -11 10
-3 6 -1 10 4 10 6 0 11 -4 11 -10z m467 -26 c-3 -3 -12 -4 -19 -1 -8 3 -5 6 6
6 11 1 17 -2 13 -5z m-17 -24 c0 -5 -4 -10 -10 -10 -5 0 -10 5 -10 10 0 6 5
10 10 10 6 0 10 -4 10 -10z m-30 -10 c0 -5 -4 -10 -10 -10 -5 0 -10 5 -10 10
0 6 5 10 10 10 6 0 10 -4 10 -10z m-1137 -17 c-7 -2 -21 -2 -30 0 -10 3 -4 5
12 5 17 0 24 -2 18 -5z m134 -39 c-3 -3 -12 -4 -19 -1 -8 3 -5 6 6 6 11 1 17
-2 13 -5z m523 -14 c0 -5 -10 -10 -22 -9 -22 0 -22 1 -3 9 11 5 21 9 23 9 1 1
2 -3 2 -9z m-360 -20 c0 -5 -8 -10 -17 -10 -15 0 -16 2 -3 10 19 12 20 12 20
0z"/>
<path d="M2200 4110 c-9 -6 -10 -10 -3 -10 6 0 15 5 18 10 8 12 4 12 -15 0z"/>
<path d="M1330 4260 c-9 -6 -10 -10 -3 -10 6 0 15 5 18 10 8 12 4 12 -15 0z"/>
<path d="M5470 4241 c0 -5 5 -13 10 -16 6 -3 10 -2 10 4 0 5 -4 13 -10 16 -5
3 -10 2 -10 -4z"/>
<path d="M1267 4176 c-20 -19 -42 -36 -49 -38 -7 -3 -8 -7 -2 -10 5 -4 25 7
43 23 19 16 37 29 41 29 4 0 7 7 7 15 0 19 1 20 -40 -19z"/>
<path d="M1213 4189 c-18 -5 -34 -13 -37 -17 -8 -13 11 -35 24 -27 9 6 9 9 -1
16 -11 7 -9 9 6 9 11 0 29 7 39 15 22 17 16 17 -31 4z"/>
<path d="M1495 4180 c-3 -5 1 -10 9 -10 9 0 16 5 16 10 0 6 -4 10 -9 10 -6 0
-13 -4 -16 -10z"/>
<path d="M1600 4170 c0 -5 -6 -9 -12 -7 -8 1 -13 -10 -13 -31 -1 -18 2 -31 5
-29 3 2 20 10 38 17 17 8 32 20 32 27 0 9 -7 8 -27 -3 -43 -22 -51 -16 -18 11
23 19 26 25 13 25 -10 0 -18 -4 -18 -10z"/>
<path d="M4841 4156 c-9 -10 -8 -16 4 -26 13 -11 15 -8 15 14 0 30 -3 32 -19
12z"/>
<path d="M1465 4150 c3 -5 8 -10 11 -10 2 0 4 5 4 10 0 6 -5 10 -11 10 -5 0
-7 -4 -4 -10z"/>
<path d="M1315 4125 c-19 -16 -24 -25 -15 -25 8 0 21 9 28 21 8 12 19 18 28
15 8 -3 14 -1 14 4 0 17 -24 10 -55 -15z"/>
<path d="M1248 4116 c-29 -24 -35 -36 -19 -36 5 0 19 14 31 30 26 36 24 37
-12 6z"/>
<path d="M1530 4136 c0 -2 7 -7 16 -10 8 -3 12 -2 9 4 -6 10 -25 14 -25 6z"/>
<path d="M1155 4120 c4 -6 11 -8 16 -5 14 9 11 15 -7 15 -8 0 -12 -5 -9 -10z"/>
<path d="M1174 4099 c-19 -22 -19 -22 3 -10 24 12 39 31 25 31 -5 0 -17 -10
-28 -21z"/>
<path d="M1360 4110 c0 -5 5 -10 11 -10 5 0 7 5 4 10 -3 6 -8 10 -11 10 -2 0
-4 -4 -4 -10z"/>
<path d="M1392 4094 c-18 -8 -31 -18 -28 -23 6 -9 75 19 76 32 0 10 -9 8 -48
-9z"/>
<path d="M1671 4099 c11 -7 11 -9 1 -9 -7 0 -10 -4 -7 -10 3 -5 -1 -10 -9 -10
-8 0 -19 7 -24 15 -7 13 -14 14 -36 5 -15 -5 -32 -7 -38 -4 -6 4 -14 1 -18 -7
-7 -10 -11 -10 -24 0 -16 14 -25 10 -64 -26 -19 -18 -1 -16 22 2 23 17 46 20
46 5 0 -5 -7 -10 -16 -10 -14 0 -13 -2 2 -17 15 -16 15 -17 -2 -24 -11 -4 -14
-8 -8 -8 6 -1 14 -20 18 -43 4 -24 14 -53 22 -65 13 -20 13 -31 -1 -88 -8 -36
-24 -84 -36 -107 l-21 -42 -19 39 c-11 21 -25 43 -32 47 -9 6 -9 10 3 18 13 8
12 10 -2 10 -10 0 -18 4 -18 10 0 29 -84 97 -103 82 -7 -4 -22 -9 -34 -10 -34
-1 -72 -31 -94 -73 -41 -82 -13 -138 79 -158 30 -6 58 -9 63 -5 5 3 9 0 9 -6
0 -7 6 -10 14 -7 7 3 19 0 25 -6 8 -8 24 -1 58 23 l48 34 -43 -51 c-23 -28
-63 -64 -87 -80 -25 -15 -45 -32 -45 -36 0 -10 6 -6 86 50 41 29 68 41 80 37
14 -4 16 -3 5 4 -9 7 -10 11 -2 17 7 4 19 1 27 -6 12 -10 13 -9 8 4 -3 10 2
21 15 29 12 7 21 21 21 31 0 12 4 16 12 11 18 -11 48 -12 48 -2 0 4 -7 8 -15
8 -14 0 -13 7 2 50 7 18 9 29 11 53 1 9 7 17 13 17 6 0 8 -7 5 -16 -5 -13 -4
-14 7 -6 10 9 14 8 14 -3 0 -8 -4 -15 -9 -15 -5 0 -6 -4 -3 -10 3 -5 -1 -10
-10 -10 -11 0 -15 -5 -12 -14 3 -7 0 -19 -6 -25 -8 -8 -4 -11 17 -11 23 0 26
3 21 19 -5 15 -1 19 13 18 12 0 18 -6 15 -14 -3 -7 0 -13 7 -13 6 0 10 8 9 18
-4 41 1 61 14 56 18 -6 40 20 35 43 -3 16 -5 16 -26 -5 -25 -25 -30 -18 -6 9
17 19 10 44 -9 32 -9 -5 -9 -3 -1 8 13 18 10 62 -5 67 -16 5 -13 22 4 22 12 0
13 3 3 19 -9 15 -8 22 4 34 9 9 18 13 22 10 3 -4 6 -2 6 4 0 6 -11 18 -25 27
-30 20 -31 30 -6 55 18 18 18 19 -6 19 -18 0 -21 -3 -12 -9z m49 -313 c0 -3
-4 -8 -10 -11 -5 -3 -10 -1 -10 4 0 6 5 11 10 11 6 0 10 -2 10 -4z m-190 -134
c0 -4 -9 -13 -20 -20 -23 -14 -26 -8 -7 13 13 16 27 19 27 7z"/>
<path d="M1330 4090 c0 -5 5 -10 10 -10 6 0 10 5 10 10 0 6 -4 10 -10 10 -5 0
-10 -4 -10 -10z"/>
<path d="M1290 4076 c0 -2 7 -7 16 -10 8 -3 12 -2 9 4 -6 10 -25 14 -25 6z"/>
<path d="M1420 4070 c-9 -6 -10 -10 -3 -10 6 0 15 5 18 10 8 12 4 12 -15 0z"/>
<path d="M1708 4068 c-5 -13 19 -44 27 -36 7 6 -7 48 -15 48 -5 0 -10 -6 -12
-12z"/>
<path d="M1333 4052 c-9 -6 -7 -11 6 -19 16 -10 18 -9 14 8 -3 10 -6 19 -7 19
0 0 -6 -4 -13 -8z"/>
<path d="M3730 4050 c-8 -5 -10 -10 -5 -10 6 0 17 5 25 10 8 5 11 10 5 10 -5
0 -17 -5 -25 -10z"/>
<path d="M1255 4036 c-22 -13 -33 -40 -14 -34 7 2 19 14 27 26 16 25 15 25
-13 8z"/>
<path d="M1947 4043 c-4 -3 -7 -16 -6 -27 0 -19 1 -19 10 3 10 24 8 36 -4 24z"/>
<path d="M1400 4033 c8 -3 18 -11 22 -17 5 -7 8 -4 8 7 0 11 -7 17 -22 16 -16
0 -18 -2 -8 -6z"/>
<path d="M1910 4019 c0 -5 5 -7 10 -4 6 3 10 8 10 11 0 2 -4 4 -10 4 -5 0 -10
-5 -10 -11z"/>
<path d="M3636 4015 c4 -8 11 -15 16 -15 6 0 5 6 -2 15 -7 8 -14 15 -16 15 -2
0 -1 -7 2 -15z"/>
<path d="M1710 3989 c-23 -20 -23 -21 -6 -31 14 -8 15 -12 5 -18 -10 -7 -10
-11 1 -24 7 -9 10 -19 6 -23 -3 -3 3 -13 14 -20 27 -19 58 1 39 24 -9 11 -8
17 7 29 10 9 15 14 9 12 -5 -3 -20 6 -32 19 -26 26 -18 30 15 7 20 -14 24 -14
37 0 18 18 4 30 -24 21 -12 -3 -21 0 -25 10 -7 20 -16 19 -46 -6z m42 -84 c2
-11 -1 -20 -6 -20 -5 0 -10 13 -12 28 -2 32 14 24 18 -8z"/>
<path d="M2230 3975 c0 -13 4 -14 20 -5 11 6 20 13 20 15 0 3 -9 5 -20 5 -11
0 -20 -7 -20 -15z"/>
<path d="M2305 3971 c-6 -5 -21 -11 -34 -13 -29 -4 -41 -28 -14 -28 15 0 16 2
3 10 -12 8 -9 10 12 10 33 0 58 9 58 21 0 12 -13 12 -25 0z"/>
<path d="M2340 3951 c0 -6 -11 -11 -24 -11 -17 0 -23 -5 -22 -17 2 -9 9 -19
16 -21 7 -3 10 0 6 6 -3 6 -2 13 3 16 5 4 13 1 16 -5 4 -5 13 -8 21 -5 8 3 14
2 14 -3 0 -4 14 -5 31 -3 18 3 29 1 26 -4 -3 -5 9 -10 25 -10 27 -1 28 0 12 9
-23 13 -37 16 -86 19 -37 2 -50 12 -26 20 9 3 9 6 0 12 -7 4 -12 2 -12 -3z"/>
<path d="M1810 3940 c0 -5 5 -10 11 -10 5 0 7 5 4 10 -3 6 -8 10 -11 10 -2 0
-4 -4 -4 -10z"/>
<path d="M3343 3924 c-20 -8 -34 -10 -38 -4 -9 15 -25 12 -25 -4 0 -18 59 -13
99 9 33 18 6 18 -36 -1z"/>
<path d="M1796 3905 c-9 -26 -7 -32 5 -12 6 10 9 21 6 23 -2 3 -7 -2 -11 -11z"/>
<path d="M1955 3880 c-17 -19 -17 -20 0 -20 11 0 15 -5 11 -15 -5 -13 -2 -14
17 -3 19 10 20 13 5 16 -10 2 -18 10 -18 17 0 7 8 16 18 18 14 4 14 5 1 6 -9
0 -24 -8 -34 -19z"/>
<path d="M2035 3890 c-3 -5 -1 -10 4 -10 6 0 11 5 11 10 0 6 -2 10 -4 10 -3 0
-8 -4 -11 -10z"/>
<path d="M2340 3890 c0 -5 5 -10 11 -10 5 0 8 -4 5 -9 -4 -5 2 -7 12 -4 10 2
35 -5 55 -17 30 -18 36 -19 31 -6 -3 9 -12 16 -19 16 -7 0 -15 7 -19 15 -3 8
-12 12 -20 9 -8 -3 -17 -1 -21 5 -8 14 -35 14 -35 1z"/>
<path d="M1861 3886 c2 -2 18 -6 34 -10 22 -5 26 -4 15 4 -14 9 -59 15 -49 6z"/>
<path d="M2315 3880 c3 -5 8 -10 11 -10 2 0 4 5 4 10 0 6 -5 10 -11 10 -5 0
-7 -4 -4 -10z"/>
<path d="M2448 3873 c7 -3 16 -2 19 1 4 3 -2 6 -13 5 -11 0 -14 -3 -6 -6z"/>
<path d="M2524 3861 c11 -11 23 -21 28 -21 14 0 -1 19 -25 31 -22 12 -22 12
-3 -10z"/>
<path d="M2555 3870 c3 -5 11 -10 16 -10 6 0 7 5 4 10 -3 6 -11 10 -16 10 -6
0 -7 -4 -4 -10z"/>
<path d="M2046 3862 c-2 -4 -1 -14 3 -21 6 -10 10 -9 14 3 6 16 -8 32 -17 18z"/>
<path d="M2670 3840 c0 -5 15 -10 33 -10 24 0 28 3 17 10 -20 13 -50 13 -50 0z"/>
<path d="M1848 3833 c7 -3 16 -2 19 1 4 3 -2 6 -13 5 -11 0 -14 -3 -6 -6z"/>
<path d="M2495 3830 c3 -5 11 -10 16 -10 6 0 7 5 4 10 -3 6 -11 10 -16 10 -6
0 -7 -4 -4 -10z"/>
<path d="M2789 3827 c17 -22 71 -23 71 -2 0 8 -7 15 -16 15 -8 0 -12 -4 -9
-10 8 -13 -11 -13 -38 2 -20 10 -21 10 -8 -5z"/>
<path d="M2541 3817 c-13 -17 -4 -27 23 -26 21 0 21 1 1 9 -16 7 -17 9 -3 9 9
1 20 6 23 11 9 15 -31 12 -44 -3z"/>
<path d="M4948 3823 c7 -3 16 -2 19 1 4 3 -2 6 -13 5 -11 0 -14 -3 -6 -6z"/>
<path d="M2616 3797 c3 -10 9 -15 12 -12 3 3 0 11 -7 18 -10 9 -11 8 -5 -6z"/>
<path d="M1781 3753 c6 -10 23 -18 37 -19 l27 -1 -27 10 c-16 6 -28 14 -28 19
0 4 -5 8 -10 8 -7 0 -6 -6 1 -17z"/>
<path d="M1750 3728 c11 -12 23 -19 26 -15 9 9 -15 37 -33 37 -10 0 -8 -6 7
-22z"/>
<path d="M976 3681 c-3 -5 -21 -12 -39 -15 -19 -3 -43 -17 -54 -29 -22 -26
-36 -67 -23 -67 5 0 11 -13 15 -29 8 -37 82 -107 123 -116 18 -3 32 -10 32
-14 0 -16 72 -3 91 16 27 27 38 100 16 109 -13 5 -14 10 -5 30 10 22 7 29 -27
64 -22 22 -46 42 -54 44 -50 13 -70 15 -75 7z"/>
<path d="M1618 3653 c6 -2 18 -2 25 0 6 3 1 5 -13 5 -14 0 -19 -2 -12 -5z"/>
<path d="M2245 3590 c3 -5 8 -10 11 -10 2 0 4 5 4 10 0 6 -5 10 -11 10 -5 0
-7 -4 -4 -10z"/>
<path d="M2282 3536 c1 -14 6 -22 10 -20 4 3 8 -1 9 -8 0 -7 4 -4 8 7 5 12 3
24 -5 32 -18 19 -24 16 -22 -11z"/>
<path d="M2637 3537 c-3 -7 5 -13 19 -13 29 -2 30 2 5 15 -14 8 -20 7 -24 -2z"/>
<path d="M834 3494 c7 -22 14 -30 22 -23 6 5 13 8 15 6 2 -1 -1 3 -8 9 -7 6
-13 18 -13 26 0 8 -6 15 -13 15 -10 0 -11 -8 -3 -33z"/>
<path d="M1275 3470 c3 -5 8 -10 11 -10 2 0 4 5 4 10 0 6 -5 10 -11 10 -5 0
-7 -4 -4 -10z"/>
<path d="M865 3440 c3 -5 18 -10 32 -10 32 0 28 5 -10 14 -19 4 -26 3 -22 -4z"/>
<path d="M5597 3413 c-4 -3 -7 -11 -7 -17 0 -6 5 -5 12 2 6 6 9 14 7 17 -3 3
-9 2 -12 -2z"/>
<path d="M1005 3390 c-3 -5 -1 -10 4 -10 6 0 11 5 11 10 0 6 -2 10 -4 10 -3 0
-8 -4 -11 -10z"/>
<path d="M898 3383 c7 -3 16 -2 19 1 4 3 -2 6 -13 5 -11 0 -14 -3 -6 -6z"/>
<path d="M5408 3356 c-16 -5 -28 -13 -28 -18 0 -12 24 -10 38 4 10 10 15 10
22 -2 5 -8 10 -10 10 -5 0 24 -15 31 -42 21z"/>
<path d="M3870 3296 c0 -8 5 -18 10 -21 6 -3 10 1 10 9 0 8 -4 18 -10 21 -5 3
-10 -1 -10 -9z"/>
<path d="M1830 3160 c-14 -11 -20 -20 -14 -20 6 0 19 9 29 20 23 25 17 25 -15
0z"/>
<path d="M4870 3060 c13 -11 26 -18 28 -15 6 6 -28 34 -42 35 -5 0 1 -9 14
-20z"/>
<path d="M4935 2970 c3 -5 8 -10 11 -10 2 0 4 5 4 10 0 6 -5 10 -11 10 -5 0
-7 -4 -4 -10z"/>
<path d="M4967 1553 c-6 -34 -5 -37 10 -14 6 10 8 23 3 30 -5 9 -9 3 -13 -16z"/>
<path d="M3880 1430 c13 -23 20 -26 20 -6 0 8 -7 16 -15 20 -13 4 -14 2 -5
-14z"/>
<path d="M3836 1424 c-3 -8 -11 -12 -17 -8 -7 4 -10 1 -7 -7 3 -8 12 -15 21
-17 13 -3 15 1 10 14 -5 14 -3 16 12 11 15 -6 16 -5 5 8 -15 19 -16 19 -24 -1z"/>
<path d="M3066 1375 c4 -8 8 -15 10 -15 2 0 4 7 4 15 0 8 -4 15 -10 15 -5 0
-7 -7 -4 -15z"/>
<path d="M1655 1360 c10 -11 20 -20 23 -20 3 0 -3 9 -13 20 -10 11 -20 20 -23
20 -3 0 3 -9 13 -20z"/>
<path d="M3040 1360 c0 -5 5 -10 11 -10 5 0 7 5 4 10 -3 6 -8 10 -11 10 -2 0
-4 -4 -4 -10z"/>
<path d="M2961 1294 c0 -11 3 -14 6 -6 3 7 2 16 -1 19 -3 4 -6 -2 -5 -13z"/>
<path d="M3600 1285 c-7 -9 -8 -15 -2 -15 5 0 12 7 16 15 3 8 4 15 2 15 -2 0
-9 -7 -16 -15z"/>
<path d="M1834 1259 c-3 -6 6 -23 21 -38 15 -14 25 -20 21 -13 -9 14 3 16 24
2 13 -9 13 -11 0 -20 -8 -5 -10 -10 -5 -10 6 0 17 5 25 10 13 8 12 11 -5 24
-11 9 -26 16 -33 16 -7 0 -10 5 -7 11 4 6 0 9 -11 7 -11 -2 -18 2 -16 10 3 15
-5 16 -14 1z"/>
<path d="M3540 1239 c0 -5 5 -7 10 -4 6 3 10 8 10 11 0 2 -4 4 -10 4 -5 0 -10
-5 -10 -11z"/>
<path d="M2820 1230 c0 -5 5 -10 11 -10 5 0 7 5 4 10 -3 6 -8 10 -11 10 -2 0
-4 -4 -4 -10z"/>
<path d="M1940 1190 c0 -5 5 -10 11 -10 5 0 7 5 4 10 -3 6 -8 10 -11 10 -2 0
-4 -4 -4 -10z"/>
<path d="M1990 1180 c0 -5 5 -10 11 -10 5 0 7 5 4 10 -3 6 -8 10 -11 10 -2 0
-4 -4 -4 -10z"/>
<path d="M1975 1154 c38 -29 61 -36 31 -10 -16 14 -34 26 -40 26 -6 0 -2 -8 9
-16z"/>
<path d="M2015 1160 c-3 -5 1 -10 9 -10 9 0 16 5 16 10 0 6 -4 10 -9 10 -6 0
-13 -4 -16 -10z"/>
<path d="M2774 1155 c-10 -8 -14 -15 -8 -15 5 0 19 7 30 15 10 8 14 15 8 15
-5 0 -19 -7 -30 -15z"/>
<path d="M2050 1143 c0 -15 9 -24 32 -32 38 -13 49 -7 16 10 -12 7 -28 19 -35
28 -11 14 -12 13 -13 -6z"/>
<path d="M2080 1152 c1 -11 90 -62 90 -52 0 6 -4 10 -8 10 -5 0 -17 8 -28 18
-22 20 -54 35 -54 24z"/>
<path d="M2586 1131 c-22 -24 -60 -35 -52 -15 3 8 1 14 -4 14 -6 0 -10 -4 -10
-9 0 -5 -13 -12 -29 -16 -31 -7 -48 -31 -28 -38 7 -2 17 3 24 12 6 9 15 12 20
7 4 -5 2 -11 -4 -13 -7 -3 -13 -9 -13 -14 0 -5 9 -4 20 3 17 11 22 10 30 -2 5
-8 12 -11 17 -7 4 5 1 12 -7 18 -13 8 -13 10 0 19 8 5 22 10 30 10 13 0 13 -1
0 -10 -13 -9 -13 -11 0 -20 20 -13 39 -12 20 1 -11 8 -7 9 18 5 20 -4 31 -2
27 4 -3 6 2 10 13 10 17 0 72 41 72 54 0 11 -66 -19 -78 -36 -7 -10 -18 -18
-24 -18 -6 0 -3 9 7 20 20 23 14 26 -15 8 -24 -15 -37 -4 -20 17 18 22 6 19
-14 -4z"/>
<path d="M2235 1120 c-3 -6 -17 -7 -31 -4 -14 4 -24 2 -24 -5 0 -11 19 -16 50
-13 8 1 29 -3 45 -9 26 -9 106 -21 143 -22 6 0 12 -5 13 -11 1 -13 17 24 18
42 1 6 -4 12 -10 12 -6 0 -9 -7 -5 -15 5 -13 2 -14 -16 -4 -17 9 -18 13 -7 20
9 6 1 7 -20 2 -27 -5 -33 -3 -27 8 5 10 3 9 -6 -1 -7 -9 -21 -14 -32 -12 -11
2 -16 0 -12 -7 4 -6 0 -11 -8 -11 -9 0 -16 5 -16 10 0 6 -9 10 -21 10 -11 0
-17 5 -14 10 3 6 2 10 -4 10 -5 0 -13 -5 -16 -10z"/>
<path d="M2724 1115 c-18 -13 -18 -14 4 -8 12 3 25 9 28 14 8 14 -10 11 -32
-6z"/>
<path d="M4668 940 c-7 -24 -3 -38 8 -28 3 4 4 17 2 30 l-3 23 -7 -25z"/>
<path d="M1436 789 c15 -73 24 -87 18 -27 -8 64 -13 88 -22 88 -5 0 -3 -27 4
-61z"/>
<path d="M2235 810 c-3 -5 -1 -10 4 -10 6 0 11 5 11 10 0 6 -2 10 -4 10 -3 0
-8 -4 -11 -10z"/>
<path d="M2296 691 c-4 -7 -5 -15 -2 -18 9 -9 19 4 14 18 -4 11 -6 11 -12 0z"/>
<path d="M2295 650 c3 -5 8 -10 11 -10 2 0 4 5 4 10 0 6 -5 10 -11 10 -5 0 -7
-4 -4 -10z"/>
<path d="M2589 573 c-13 -17 -13 -17 6 -3 11 8 22 16 24 17 2 2 0 3 -6 3 -6 0
-17 -8 -24 -17z"/>
<path d="M1868 443 c7 -3 16 -2 19 1 4 3 -2 6 -13 5 -11 0 -14 -3 -6 -6z"/>
<path d="M2280 424 c0 -8 5 -12 10 -9 6 3 10 10 10 16 0 5 -4 9 -10 9 -5 0
-10 -7 -10 -16z"/>
<path d="M5920 3649 c0 -5 5 -7 10 -4 6 3 10 8 10 11 0 2 -4 4 -10 4 -5 0 -10
-5 -10 -11z"/>
<path d="M5820 3274 c15 -17 30 -18 30 -1 0 7 -9 13 -21 14 -17 2 -18 -1 -9
-13z"/>
<path d="M5118 2938 c-10 -12 -16 -24 -14 -26 6 -5 55 31 56 41 0 15 -26 6
-42 -15z"/>
<path d="M5198 2919 c-16 -11 -28 -26 -28 -32 0 -8 4 -7 12 1 7 7 19 12 28 12
9 0 3 -10 -18 -28 -18 -15 -30 -31 -26 -35 4 -4 20 7 35 23 16 16 31 25 34 20
3 -5 -3 -20 -14 -32 -12 -12 -18 -24 -15 -27 3 -3 9 1 14 9 6 8 10 11 10 6 0
-5 7 -3 15 4 21 18 19 48 -5 55 -23 7 -25 16 -8 33 20 20 -5 13 -34 -9z"/>
<path d="M5140 2870 c0 -5 5 -10 10 -10 6 0 10 5 10 10 0 6 -4 10 -10 10 -5 0
-10 -4 -10 -10z"/>
<path d="M5255 2830 c3 -5 8 -10 11 -10 2 0 4 5 4 10 0 6 -5 10 -11 10 -5 0
-7 -4 -4 -10z"/>
<path d="M6015 3180 c-3 -5 3 -10 15 -10 12 0 18 5 15 10 -3 6 -10 10 -15 10
-5 0 -12 -4 -15 -10z"/>
</g>
</svg>
